<svg width="467.000000" height="77.000000" viewBox="0 0 467 77" fill="none" xmlns="http://www.w3.org/2000/svg" xmlns:xlink="http://www.w3.org/1999/xlink">
	<desc>
			Created with Pixso.
	</desc>
	<defs>
		<linearGradient x1="120.103622" y1="5.525282" x2="132.718781" y2="71.474716" id="paint_linear_217_3_0" gradientUnits="userSpaceOnUse">
			<stop stop-color="#FFB900"/>
			<stop offset="1.000000" stop-color="#F12222"/>
		</linearGradient>
	</defs>
	<rect id="Frame 46" width="467.000000" height="77.000336" fill="#FFFFFF" fill-opacity="0"/>
	<path id="Vector 27" d="M17.77 48.26L16.57 52.78L27.03 52.78L25.89 48.26C25.19 45.81 24.52 43.21 23.87 40.45C23.22 37.69 22.56 35.02 21.9 32.46L21.61 32.46C21.01 35.07 20.39 37.75 19.75 40.49C19.13 43.22 18.46 45.81 17.77 48.26ZM32.3 73.1L29.29 61.43L14.31 61.43L11.3 73.1L0 73.1L15.36 24.03L28.68 24.03L44.05 73.1L32.3 73.1Z" fill="#213360" fill-opacity="1.000000" fill-rule="nonzero"/>
	<path id="Vector 27" d="M59.13 74C56.68 74 54.15 73.52 51.54 72.58C48.93 71.63 46.69 70.37 44.83 68.82L49.79 61.89C53.26 64.5 56.47 65.8 59.44 65.8C62.6 65.8 64.18 64.75 64.18 62.64C64.18 61.38 63.39 60.4 61.81 59.71C60.23 59.01 58.48 58.28 56.57 57.52C54.32 56.66 52.11 55.38 49.94 53.68C47.78 51.98 46.7 49.6 46.7 46.53C46.7 43.07 48.01 40.26 50.62 38.1C53.23 35.95 56.69 34.87 61.02 34.87C63.87 34.87 66.38 35.36 68.54 36.34C70.69 37.32 72.57 38.41 74.18 39.61L69.22 46.24C67.87 45.29 66.54 44.52 65.23 43.94C63.93 43.37 62.62 43.08 61.31 43.08C58.51 43.08 57.1 44.05 57.1 46C57.1 47.21 57.84 48.13 59.31 48.76C60.79 49.38 62.49 50.04 64.4 50.74C66.75 51.6 69.02 52.83 71.2 54.43C73.39 56.04 74.49 58.55 74.49 61.96C74.49 65.37 73.18 68.23 70.58 70.54C67.97 72.85 64.15 74 59.13 74Z" fill="#213360" fill-opacity="1.000000" fill-rule="nonzero"/>
	<path id="Vector 27" d="M80.09 73.1L80.09 20.36L91.15 20.36L91.15 33.29L90.64 39.99C92.03 38.73 93.68 37.56 95.56 36.49C97.45 35.41 99.64 34.87 102.14 34.87C106.21 34.87 109.16 36.22 110.98 38.91C112.82 41.59 113.74 45.26 113.74 49.91L113.74 73.1L102.68 73.1L102.68 51.35C102.68 48.64 102.31 46.79 101.57 45.78C100.85 44.78 99.69 44.27 98.08 44.27C96.67 44.27 95.47 44.59 94.46 45.23C93.47 45.85 92.37 46.74 91.15 47.89L91.15 73.1L80.09 73.1Z" fill="#213360" fill-opacity="1.000000" fill-rule="nonzero"/>
	<path id="Vector 27" d="M156.41 73.1L156.41 23.52L183.59 23.52L183.59 26.53L159.88 26.53L159.88 45.25L179.75 45.25L179.75 48.26L159.88 48.26L159.88 70.08L184.34 70.08L184.34 73.1L156.41 73.1Z" fill="#818181" fill-opacity="1.000000" fill-rule="nonzero"/>
	<path id="Vector 27" d="M197.84 74C194.89 74 193.41 72.09 193.41 68.28L193.41 19L196.72 19L196.72 68.72C196.72 70.28 197.25 71.06 198.3 71.06C198.71 71.06 199.16 71.01 199.66 70.91L200.27 73.63C199.51 73.87 198.7 74 197.84 74Z" fill="#818181" fill-opacity="1.000000" fill-rule="nonzero"/>
	<path id="Vector 27" d="M223.55 74C218.93 74 214.99 72.33 211.73 69C208.47 65.66 206.85 61.03 206.85 55.11C206.85 49.2 208.46 44.55 211.7 41.17C214.93 37.78 218.56 36.08 222.58 36.08C226.84 36.08 230.22 37.54 232.7 40.45C235.19 43.36 236.43 47.46 236.43 52.78C236.43 53.23 236.42 53.69 236.4 54.14C236.37 54.59 236.34 55.04 236.29 55.5L210.23 55.5C210.28 60.05 211.54 63.8 214.03 66.74C216.52 69.68 219.8 71.15 223.86 71.15C225.81 71.15 227.58 70.85 229.16 70.25C230.74 69.64 232.21 68.85 233.57 67.9L234.93 70.47C233.47 71.31 231.86 72.12 230.09 72.88C228.34 73.62 226.16 74 223.55 74ZM210.23 52.78L233.27 52.78C233.27 48.16 232.31 44.7 230.37 42.4C228.43 40.09 225.86 38.93 222.65 38.93C219.54 38.93 216.78 40.16 214.36 42.62C211.96 45.08 210.58 48.47 210.23 52.78Z" fill="#818181" fill-opacity="1.000000" fill-rule="nonzero"/>
	<path id="Vector 27" d="M258.22 74C253.55 74 249.65 72.34 246.51 69.04C243.38 65.72 241.81 61.08 241.81 55.11C241.81 49.04 243.45 44.35 246.73 41.04C250.03 37.73 253.88 36.08 258.29 36.08C260.76 36.08 262.83 36.53 264.51 37.44C266.18 38.33 267.66 39.36 268.92 40.51L266.95 42.84C265.8 41.74 264.52 40.83 263.11 40.1C261.7 39.38 260.12 39.02 258.37 39.02C254.66 39.02 251.54 40.51 249.03 43.5C246.52 46.48 245.26 50.35 245.26 55.11C245.26 59.88 246.46 63.73 248.85 66.67C251.24 69.59 254.41 71.06 258.37 71.06C260.28 71.06 262.05 70.65 263.68 69.83C265.31 68.99 266.75 68.03 268 66.92L269.74 69.26C268.19 70.62 266.45 71.75 264.54 72.66C262.63 73.55 260.52 74 258.22 74Z" fill="#818181" fill-opacity="1.000000" fill-rule="nonzero"/>
	<path id="Vector 27" d="M286.33 74C282.82 74 280.44 72.99 279.18 70.98C277.93 68.97 277.3 66.34 277.3 63.08L277.3 39.85L271.66 39.85L271.66 37.28L277.38 36.98L277.84 26.53L280.68 26.53L280.68 36.98L291.16 36.98L291.16 39.85L280.68 39.85L280.68 63.4C280.68 65.7 281.08 67.55 281.88 68.96C282.69 70.36 284.32 71.06 286.79 71.06C288.19 71.06 289.7 70.68 291.31 69.94L292.21 72.64C291.15 73.04 290.1 73.37 289.04 73.61C287.99 73.87 287.09 74 286.33 74Z" fill="#818181" fill-opacity="1.000000" fill-rule="nonzero"/>
	<path id="Vector 27" d="M298.57 73.1L298.57 36.98L301.42 36.98L301.73 43.67L301.95 43.67C303.15 41.46 304.61 39.65 306.34 38.23C308.08 36.8 310.03 36.08 312.19 36.08C313.59 36.08 314.8 36.33 315.81 36.83L315.05 39.85C314 39.44 312.9 39.24 311.74 39.24C310.14 39.24 308.44 39.95 306.65 41.35C304.88 42.75 303.28 45.13 301.88 48.5L301.88 73.1L298.57 73.1Z" fill="#818181" fill-opacity="1.000000" fill-rule="nonzero"/>
	<path id="Vector 27" d="M333.46 74C329.14 74 325.35 72.34 322.12 69.04C318.89 65.72 317.27 61.08 317.27 55.11C317.27 49.04 318.89 44.35 322.12 41.04C325.35 37.73 329.14 36.08 333.46 36.08C337.82 36.08 341.62 37.73 344.85 41.04C348.09 44.35 349.71 49.04 349.71 55.11C349.71 61.08 348.09 65.72 344.85 69.04C341.62 72.34 337.82 74 333.46 74ZM333.46 71.06C337.12 71.06 340.17 69.59 342.59 66.67C345.03 63.73 346.25 59.88 346.25 55.11C346.25 50.35 345.03 46.48 342.59 43.5C340.17 40.51 337.12 39.02 333.46 39.02C329.8 39.02 326.76 40.51 324.34 43.5C321.93 46.48 320.72 50.35 320.72 55.11C320.72 59.88 321.93 63.73 324.34 66.67C326.76 69.59 329.8 71.06 333.46 71.06Z" fill="#818181" fill-opacity="1.000000" fill-rule="nonzero"/>
	<path id="Vector 27" d="M359.16 73.1L359.16 36.98L362.01 36.98L362.32 42.55L362.54 42.55C364.41 40.69 366.31 39.14 368.26 37.92C370.22 36.69 372.45 36.08 374.97 36.08C382.24 36.08 385.88 40.69 385.88 49.91L385.88 73.1L382.58 73.1L382.58 50.37C382.58 46.56 381.93 43.74 380.65 41.89C379.37 40.03 377.25 39.09 374.29 39.09C372.13 39.09 370.17 39.66 368.41 40.78C366.65 41.91 364.68 43.6 362.47 45.85L362.47 73.1L359.16 73.1Z" fill="#818181" fill-opacity="1.000000" fill-rule="nonzero"/>
	<path id="Vector 27" d="M399.54 28.26C398.68 28.26 397.97 27.98 397.39 27.43C396.82 26.88 396.53 26.17 396.53 25.32C396.53 24.36 396.82 23.62 397.39 23.09C397.97 22.57 398.68 22.3 399.54 22.3C400.4 22.3 401.12 22.57 401.69 23.09C402.27 23.62 402.56 24.36 402.56 25.32C402.56 26.17 402.27 26.88 401.69 27.43C401.12 27.98 400.4 28.26 399.54 28.26ZM397.81 73.1L397.81 36.98L401.12 36.98L401.12 73.1L397.81 73.1Z" fill="#818181" fill-opacity="1.000000" fill-rule="nonzero"/>
	<path id="Vector 27" d="M427.06 74C422.39 74 418.49 72.34 415.35 69.04C412.21 65.72 410.64 61.08 410.64 55.11C410.64 49.04 412.29 44.35 415.57 41.04C418.87 37.73 422.72 36.08 427.13 36.08C429.59 36.08 431.66 36.53 433.34 37.44C435.02 38.33 436.49 39.36 437.75 40.51L435.79 42.84C434.63 41.74 433.35 40.83 431.94 40.1C430.54 39.38 428.95 39.02 427.2 39.02C423.49 39.02 420.38 40.51 417.87 43.5C415.36 46.48 414.1 50.35 414.1 55.11C414.1 59.88 415.29 63.73 417.68 66.67C420.07 69.59 423.25 71.06 427.2 71.06C429.11 71.06 430.88 70.65 432.51 69.83C434.14 68.99 435.58 68.03 436.83 66.92L438.58 69.26C437.02 70.62 435.29 71.75 433.38 72.66C431.47 73.55 429.36 74 427.06 74Z" fill="#818181" fill-opacity="1.000000" fill-rule="nonzero"/>
	<path id="Vector 27" d="M454.79 74C452.13 74 449.66 73.51 447.37 72.53C445.09 71.55 443.15 70.38 441.54 69.04L443.51 66.56C445.06 67.81 446.72 68.88 448.47 69.79C450.22 70.7 452.4 71.15 455.01 71.15C457.83 71.15 459.96 70.43 461.41 69C462.87 67.57 463.6 65.9 463.6 63.99C463.6 61.73 462.64 60.03 460.73 58.88C458.83 57.73 456.85 56.77 454.79 56.01C452.04 55.06 449.43 53.88 446.96 52.49C444.5 51.08 443.27 48.82 443.27 45.71C443.27 43.1 444.27 40.85 446.28 38.95C448.29 37.04 451.18 36.08 454.94 36.08C456.85 36.08 458.72 36.43 460.54 37.13C462.38 37.83 463.95 38.73 465.25 39.85L463.45 42.18C462.25 41.27 460.97 40.51 459.61 39.88C458.26 39.25 456.66 38.93 454.79 38.93C451.99 38.93 449.93 39.61 448.62 40.97C447.32 42.33 446.67 43.83 446.67 45.49C446.67 47.54 447.55 49.08 449.3 50.08C451.05 51.08 453 51.98 455.16 52.78C457.02 53.48 458.87 54.23 460.69 55.04C462.53 55.83 464.04 56.91 465.21 58.27C466.4 59.63 467 61.49 467 63.84C467 66.54 465.94 68.91 463.82 70.95C461.71 72.98 458.7 74 454.79 74Z" fill="#818181" fill-opacity="1.000000" fill-rule="nonzero"/>
	<path id="Vector 25" d="M121.73 73.55L102.91 73.55L123.19 44.19L106.97 51L149.24 0L129.7 34.7L144.38 33.16L121.73 73.55Z" fill="url(#paint_linear_217_3_0)" fill-opacity="1.000000" fill-rule="evenodd"/>
	<ellipse id="Oval 16" rx="6.271205" ry="6.247231" transform="matrix(0.967568 0.252613 -0.254699 0.967023 143.336 25.667)" fill="#213360" fill-opacity="1.000000"/>
</svg>
