<svg xmlns="http://www.w3.org/2000/svg" width="3000" height="3000" fill="none" viewBox="0 0 3000 3000" id="employee-is-doing-new-product-launch">
  <path fill="#FFC5A6" d="M1038.86 1629.56C1025.21 1650.36 995.679 1649.01 971.655 1645.08C923.198 1637.29 874.976 1628.56 826.812 1618.95C815.444 1616.66 803.023 1613.62 796.167 1604.01C790.659 1596.27 790.132 1586.02 789.839 1576.47C788.081 1524.61 786.382 1472.82 784.683 1420.96C784.038 1403.33 783.452 1385.69 782.925 1368.05C849.722 1337.7 927.534 1323.52 1005.87 1318.6C1010.09 1318.31 1014.78 1318.25 1018.06 1320.94C1021.69 1323.93 1022.4 1329.26 1022.81 1334.07C1027.32 1385.45 1031.83 1436.78 1036.34 1488.23C1039.16 1520.51 1042.03 1552.8 1044.84 1585.08C1046.13 1600.26 1047.12 1616.9 1038.86 1629.56Z"></path>
  <path fill="#FF9F6B" d="M1036.34 1488.16C1035.23 1488.39 1034.18 1488.51 1033.06 1488.69 964.098 1498.82 854.82 1495.83 784.098 1405.37 783.453 1387.73 783.453 1385.68 782.867 1367.98 849.664 1337.63 927.477 1323.45 1005.82 1318.53 1010.04 1318.24 1014.72 1318.18 1018 1320.87 1021.64 1323.86 1022.34 1329.19 1022.75 1334 1027.26 1385.44 1031.77 1436.77 1036.34 1488.16ZM724.925 1171.82C708.46 1176.62 697.152 1191.98 688.89 1207.44 685.198 1214.36 681.8 1221.62 680.452 1229.42 675.941 1255.08 694.749 1280.28 717.835 1290.88 740.921 1301.49 767.23 1300.9 792.484 1299.67 877.269 1295.45 961.819 1286.08 1045.49 1271.55 1056.51 1269.61 1067.7 1267.56 1077.72 1262.46 1106.9 1247.58 1119.03 1205.98 1103.91 1176.21 1093.13 1155.06 1071.68 1141.35 1049.3 1135.14 1026.92 1128.93 1003.36 1129.28 980.159 1129.98 894.085 1132.62 809.183 1147.15 724.925 1171.82Z"></path>
  <path fill="#FFC5A6" d="M727.968 1147.91C725.39 1193.56 726.796 1239.38 732.011 1284.73C736.874 1326.51 746.601 1370.86 776.777 1399.16C785.742 1407.54 796.171 1414.16 807.011 1419.73C872.519 1453.48 955.312 1448.62 1016.66 1407.31C1023.22 1402.91 1029.55 1398.11 1035.18 1392.43C1052.28 1375.14 1061.54 1350.94 1065.23 1326.51C1068.93 1302.07 1067.46 1277.23 1066.05 1252.56C1063.77 1213.6 1061.48 1174.57 1057.03 1135.78C1055.86 1125.71 1054.45 1115.34 1049.71 1106.43C1042.03 1092.13 1026.91 1083.93 1012.32 1077.54C972.421 1060.14 928.652 1050 885.585 1055.04C864.374 1057.5 843.691 1063.54 823.124 1069.57C808.945 1073.73 794.648 1077.95 781.992 1085.8C767.87 1094.59 756.562 1107.43 745.546 1120.08C738.339 1128.34 728.554 1137.02 727.968 1147.91Z"></path>
  <path fill="#203752" d="M1064.36 1225.37C1060.9 1221.21 1059.03 1215.87 1057.33 1210.6C1045.84 1175.33 1038.64 1138.65 1035.77 1101.56C1012.15 1119.78 983.091 1132.08 953.149 1138.18C923.208 1144.27 892.27 1144.27 861.919 1140.87C851.723 1139.7 841.469 1138.18 831.743 1134.78C814.516 1128.8 799.575 1117.32 785.864 1105.01C781.997 1157.1 760.727 1208.49 727.27 1249.39C699.79 1232.92 685.2 1200.4 678.696 1168.35C671.489 1132.61 672.485 1094.82 683.97 1060.31C695.454 1025.8 717.72 994.741 747.72 975.346C759.907 967.436 773.911 961.401 788.501 964.858C805.024 934.506 839.477 920.033 871.938 910.483C909.673 899.35 1031.78 889.389 1093.89 976.576C1123.66 1018.41 1117.8 1079.64 1111.18 1113.57C1103.27 1153.71 1089.61 1193.9 1064.36 1225.37Z"></path>
  <path fill="#203752" d="M791.837 1169.41C817.091 1158.69 845.743 1157.87 871.759 1166.42 878.966 1168.77 881.954 1157.46 874.806 1155.11 845.685 1145.5 814.161 1147.32 785.978 1159.27 783.048 1160.5 782.403 1164.78 783.81 1167.3 785.568 1170.35 788.966 1170.64 791.837 1169.41ZM928.476 1167.48C955.664 1157.92 985.019 1158.22 1012.03 1168.24 1019.12 1170.87 1022.11 1159.51 1015.08 1156.93 986.425 1146.26 954.374 1146.03 925.488 1156.11 918.456 1158.57 921.328 1169.94 928.476 1167.48ZM828.05 1196.6C827.757 1196.65 827.523 1196.71 827.23 1196.77 826.527 1197.01 825.765 1197.3 825.121 1197.71 823.714 1198.59 822.835 1199.53 821.898 1200.87 820.374 1202.98 820.14 1205.74 820.609 1208.26 821.078 1210.89 822.953 1213.12 825.121 1214.53 826.468 1215.4 827.992 1215.7 829.515 1215.81 829.867 1215.87 830.218 1215.87 830.511 1215.81 831.331 1215.76 832.152 1215.7 832.972 1215.4 834.027 1215.05 835.14 1214.64 836.078 1214 836.956 1213.41 837.894 1212.71 838.597 1211.83 839.066 1211.24 839.535 1210.66 839.945 1210.01 840.355 1209.37 840.589 1208.61 840.882 1207.9 840.999 1207.61 841.058 1207.32 841.117 1207.03 841.292 1206.26 841.41 1205.5 841.41 1204.74 841.41 1203.1 840.999 1201.75 840.355 1200.29 840.238 1199.99 840.121 1199.76 839.945 1199.53 839.535 1198.88 839.007 1198.24 838.48 1197.65 837.367 1196.54 836.136 1195.89 834.671 1195.31 833.265 1194.78 831.683 1194.84 830.218 1195.07 829.456 1195.19 828.753 1195.54 828.109 1195.89 827.406 1196.24 826.82 1196.77 826.292 1197.24 825.882 1197.59 825.589 1198 825.296 1198.41 825.003 1198.82 824.652 1199.23 824.417 1199.7 824.124 1200.29 823.773 1201.11 823.597 1201.81 823.48 1202.51 823.304 1203.28 823.363 1203.98 823.363 1204.68 823.48 1205.44 823.656 1206.15 823.831 1206.73 824.066 1207.32 824.359 1207.85 824.417 1208.02 824.535 1208.14 824.593 1208.26 824.945 1208.96 825.472 1209.55 826.175 1209.96 826.761 1210.48 827.406 1210.83 828.167 1211.01 829.574 1211.36 831.39 1211.19 832.621 1210.42 833.91 1209.6 835.023 1208.37 835.374 1206.85 835.667 1205.44 835.667 1203.63 834.788 1202.4 834.671 1202.22 834.554 1202.05 834.496 1201.81 834.671 1202.28 834.906 1202.81 835.081 1203.28 835.023 1203.1 834.964 1202.92 834.964 1202.75 835.023 1203.28 835.081 1203.74 835.14 1204.27 835.081 1204.04 835.081 1203.8 835.14 1203.51 835.081 1203.98 835.023 1204.51 834.964 1204.98 835.023 1204.68 835.081 1204.39 835.199 1204.15 835.023 1204.62 834.847 1205.09 834.613 1205.56 834.73 1205.27 834.906 1205.03 835.081 1204.8 834.789 1205.21 834.496 1205.62 834.144 1206.03 834.32 1205.8 834.554 1205.62 834.788 1205.44 834.378 1205.74 833.968 1206.09 833.558 1206.38 833.734 1206.26 833.91 1206.15 834.085 1206.09 833.617 1206.26 833.089 1206.5 832.621 1206.67 832.796 1206.62 833.031 1206.56 833.265 1206.5 832.738 1206.56 832.269 1206.62 831.742 1206.67 831.976 1206.67 832.21 1206.67 832.503 1206.67 832.035 1206.62 831.507 1206.56 831.038 1206.5 831.273 1206.56 831.507 1206.62 831.742 1206.67 831.273 1206.5 830.804 1206.32 830.335 1206.09 830.628 1206.21 830.863 1206.38 831.097 1206.56 830.687 1206.26 830.277 1205.97 829.867 1205.62 830.16 1205.85 830.394 1206.09 830.628 1206.38 830.335 1205.97 829.984 1205.56 829.691 1205.15 829.925 1205.5 830.101 1205.8 830.277 1206.21 830.101 1205.74 829.867 1205.21 829.691 1204.74 829.808 1205.09 829.925 1205.44 829.925 1205.8 829.867 1205.27 829.808 1204.8 829.749 1204.27 829.808 1204.56 829.749 1204.92 829.749 1205.21 829.808 1204.74 829.867 1204.21 829.925 1203.74 829.867 1204.15 829.749 1204.56 829.632 1204.92 829.808 1204.45 829.984 1203.98 830.218 1203.51 830.042 1203.92 829.808 1204.33 829.515 1204.68 829.808 1204.27 830.101 1203.86 830.453 1203.45 830.101 1203.92 829.749 1204.27 829.281 1204.62 829.691 1204.33 830.101 1203.98 830.511 1203.69 830.101 1203.98 829.632 1204.27 829.163 1204.45 829.632 1204.27 830.16 1204.04 830.628 1203.86 830.16 1204.04 829.749 1204.15 829.281 1204.21 829.808 1204.15 830.277 1204.1 830.804 1204.04 830.453 1204.1 830.101 1204.1 829.691 1204.04 830.16 1204.1 830.687 1204.15 831.156 1204.21 830.804 1204.15 830.453 1204.1 830.16 1203.92 830.628 1204.1 831.097 1204.27 831.566 1204.51 831.273 1204.39 831.038 1204.21 830.804 1204.04 831.214 1204.33 831.624 1204.62 832.035 1204.98 831.8 1204.8 831.566 1204.56 831.39 1204.33 831.683 1204.74 832.035 1205.15 832.328 1205.56 832.093 1205.27 831.859 1204.92 831.742 1204.51 831.917 1204.98 832.152 1205.5 832.328 1205.97 832.21 1205.62 832.093 1205.27 832.035 1204.92 832.093 1205.44 832.152 1205.91 832.21 1206.44 832.152 1206.15 832.152 1205.8 832.21 1205.5 832.152 1205.97 832.093 1206.5 832.035 1206.97 832.093 1206.67 832.152 1206.38 832.269 1206.09 832.093 1206.56 831.917 1207.03 831.683 1207.49 831.8 1207.14 831.976 1206.85 832.21 1206.62 831.917 1207.03 831.624 1207.44 831.273 1207.85 831.507 1207.55 831.8 1207.26 832.093 1207.03 831.683 1207.32 831.273 1207.67 830.863 1207.96 831.156 1207.79 831.449 1207.61 831.742 1207.44 831.273 1207.61 830.745 1207.85 830.277 1208.02 830.57 1207.9 830.863 1207.85 831.156 1207.79 831.976 1207.61 832.621 1207.26 833.206 1206.73 833.851 1206.32 834.378 1205.74 834.73 1205.03 835.433 1203.8 835.726 1202.05 835.316 1200.64 834.847 1199.17 833.968 1197.77 832.562 1197.01 832.093 1196.83 831.624 1196.65 831.156 1196.42 830.042 1196.3 829.046 1196.3 828.05 1196.6ZM970.255 1192.21C969.669 1192.33 969.024 1192.5 968.438 1192.74 967.735 1193.03 966.974 1193.27 966.329 1193.68 965.626 1194.03 964.981 1194.61 964.395 1195.08 964.161 1195.26 963.985 1195.43 963.81 1195.67 963.282 1196.25 962.755 1196.9 962.403 1197.6 962.11 1198.25 961.759 1198.95 961.641 1199.65 961.524 1200.41 961.349 1201.18 961.407 1201.94 961.524 1203.52 961.817 1204.93 962.696 1206.33 963.575 1207.8 964.571 1208.68 965.919 1209.61 966.798 1210.2 967.794 1210.67 968.849 1210.84 969.552 1210.96 970.313 1211.14 971.017 1211.08 971.778 1211.02 972.599 1210.96 973.36 1210.73 974.415 1210.43 975.47 1209.97 976.349 1209.32 976.993 1208.85 977.638 1208.38 978.165 1207.86 978.751 1207.27 979.22 1206.63 979.63 1205.98 980.274 1205.1 980.684 1204.05 981.036 1202.99 981.153 1202.7 981.212 1202.41 981.27 1202.11 981.388 1201.35 981.563 1200.59 981.563 1199.83 981.563 1199.07 981.446 1198.25 981.329 1197.49 981.212 1196.72 980.802 1195.96 980.45 1195.26 980.392 1195.14 980.333 1195.02 980.216 1194.91 979.864 1194.44 979.513 1193.91 979.102 1193.44 978.575 1192.86 977.931 1192.39 977.286 1192.04 976.349 1191.57 975.528 1191.33 974.532 1191.16 973.419 1190.98 972.833 1191.04 971.602 1191.27 971.075 1191.39 970.665 1191.57 970.196 1191.74 969.669 1191.98 969.2 1192.15 968.731 1192.45 968.087 1192.91 967.384 1193.38 966.798 1193.97 966.505 1194.26 966.27 1194.61 966.036 1194.91 965.802 1195.2 965.509 1195.55 965.333 1195.9 964.513 1197.31 964.22 1198.77 964.044 1200.41 963.985 1201.18 964.102 1202 964.22 1202.76 964.278 1203.34 964.513 1203.81 964.747 1204.4 965.216 1205.51 965.509 1206.04 966.388 1207.04 966.915 1207.62 967.559 1208.09 968.263 1208.5 969.552 1209.2 971.192 1209.44 972.657 1209.09 973.477 1208.91 974.122 1208.56 974.708 1208.03 975.352 1207.62 975.88 1207.04 976.231 1206.33 976.934 1204.99 977.286 1203.4 976.817 1201.94 976.349 1200.41 975.47 1199.13 974.063 1198.31 973.946 1198.25 973.888 1198.19 973.829 1198.13 974.239 1198.42 974.649 1198.72 975.06 1199.07 974.884 1198.95 974.766 1198.83 974.649 1198.66 974.942 1199.07 975.294 1199.48 975.587 1199.89 975.47 1199.71 975.352 1199.48 975.235 1199.3 975.411 1199.77 975.645 1200.3 975.821 1200.77 975.704 1200.47 975.645 1200.18 975.587 1199.83 975.645 1200.36 975.704 1200.82 975.763 1201.35 975.704 1201 975.763 1200.65 975.763 1200.3 975.704 1200.77 975.645 1201.29 975.587 1201.76 975.645 1201.47 975.704 1201.12 975.821 1200.82 975.645 1201.29 975.47 1201.76 975.235 1202.23 975.352 1201.94 975.528 1201.65 975.704 1201.41 975.411 1201.82 975.118 1202.23 974.767 1202.64 975.001 1202.35 975.235 1202.11 975.528 1201.88 975.118 1202.17 974.708 1202.52 974.298 1202.82 974.591 1202.58 974.884 1202.41 975.235 1202.29 974.767 1202.47 974.239 1202.7 973.77 1202.88 974.005 1202.82 974.239 1202.7 974.474 1202.7 973.946 1202.76 973.477 1202.82 972.95 1202.88 973.184 1202.88 973.419 1202.82 973.653 1202.88 973.184 1202.82 972.657 1202.76 972.188 1202.7 972.364 1202.7 972.481 1202.76 972.657 1202.82 972.188 1202.64 971.72 1202.47 971.251 1202.23 971.427 1202.29 971.544 1202.41 971.72 1202.47 971.309 1202.17 970.899 1201.88 970.489 1201.53 970.665 1201.65 970.841 1201.82 970.958 1202 970.665 1201.59 970.313 1201.18 970.02 1200.77 970.138 1200.94 970.255 1201.12 970.372 1201.35 970.196 1200.88 969.962 1200.36 969.786 1199.89 969.903 1200.18 969.962 1200.47 970.02 1200.77 969.962 1200.24 969.903 1199.77 969.845 1199.24 969.903 1199.65 969.903 1200 969.845 1200.41 969.903 1199.95 969.962 1199.42 970.02 1198.95 969.962 1199.42 969.845 1199.89 969.669 1200.3 969.845 1199.83 970.02 1199.36 970.255 1198.89 970.02 1199.42 969.786 1199.89 969.434 1200.36 969.727 1199.95 970.02 1199.54 970.372 1199.13 970.079 1199.54 969.727 1199.89 969.317 1200.18 969.727 1199.89 970.138 1199.54 970.548 1199.24 970.196 1199.48 969.845 1199.71 969.493 1199.89 969.962 1199.71 970.489 1199.48 970.958 1199.3 970.665 1199.42 970.313 1199.54 969.962 1199.59 970.489 1199.54 970.958 1199.48 971.485 1199.42 971.192 1199.48 970.899 1199.48 970.606 1199.42 971.075 1199.48 971.602 1199.54 972.071 1199.59 971.778 1199.54 971.485 1199.48 971.251 1199.36 971.72 1199.54 972.188 1199.71 972.657 1199.95 972.364 1199.83 972.071 1199.65 971.778 1199.48 972.188 1199.77 972.599 1200.06 973.009 1200.41 972.716 1200.18 972.481 1199.95 972.247 1199.65 972.54 1200.06 972.891 1200.47 973.184 1200.88 973.009 1200.59 972.833 1200.36 972.716 1200.06 972.891 1200.53 973.126 1201.06 973.302 1201.53 973.184 1201.24 973.126 1201 973.067 1200.71 973.126 1201.24 973.185 1201.7 973.243 1202.23 973.185 1202 973.185 1201.76 973.243 1201.47 973.185 1201.94 973.126 1202.47 973.067 1202.93 973.126 1202.7 973.185 1202.41 973.243 1202.17 973.067 1202.64 972.892 1203.11 972.657 1203.58 972.774 1203.34 972.891 1203.11 973.009 1202.93 972.716 1203.34 972.423 1203.75 972.071 1204.16 972.306 1203.87 972.54 1203.64 972.833 1203.4 972.423 1203.7 972.013 1204.05 971.602 1204.34 972.013 1204.05 972.423 1203.81 972.833 1203.64 972.364 1203.81 971.837 1204.05 971.368 1204.22 971.954 1203.99 972.599 1203.81 973.184 1203.7 974.005 1203.52 974.649 1203.17 975.235 1202.64 975.88 1202.23 976.407 1201.65 976.759 1200.94 977.169 1200.3 977.403 1199.59 977.403 1198.83 977.579 1198.07 977.52 1197.31 977.286 1196.61 976.817 1195.14 975.938 1193.74 974.532 1192.97 974.063 1192.8 973.595 1192.62 973.126 1192.39 972.247 1191.98 971.251 1191.98 970.255 1192.21ZM859.399 1341.16C897.134 1356.16 939.849 1339.28 959.185 1304.18 962.817 1297.56 952.681 1291.76 948.989 1298.38 931.939 1329.32 895.435 1343.03 862.446 1329.85 855.415 1327.03 852.427 1338.4 859.399 1341.16ZM1746.68 2245.96C1757.16 2244.5 1767.65 2243.03 1778.14 2241.51 1783.12 2240.81 1783.18 2234.71 1780.78 2231.66 1754.82 2198.85 1756.99 2150.98 1785.82 2120.75 1817.05 2087.99 1865.5 2089.34 1905.11 2104.16 1929.66 2113.36 1952.16 2127.31 1974.37 2141.02 1977.83 2143.13 1983.63 2140.38 1983.16 2135.98 1980.29 2109.5 1981.17 2080.49 1996.34 2057.52 2009.53 2037.6 2034.9 2024.65 2058.45 2032.21 2061.91 2033.33 2066.07 2030.28 2065.84 2026.59 2062.44 1969.28 2064.37 1911.86 2071.52 1854.91 2072.46 1847.41 2060.74 1847.47 2059.8 1854.85 2052.65 1911.8 2050.72 1969.22 2054.12 2026.53 2056.58 2024.65 2059.04 2022.78 2061.5 2020.9 2034.78 2012.35 2006.01 2025.53 1989.49 2047.04 1970.27 2072.06 1968.1 2105.69 1971.38 2135.92 1974.31 2134.22 1977.24 2132.52 1980.17 2130.88 1937.4 2104.58 1890.41 2076.92 1838.14 2083.19 1793.02 2088.58 1755.88 2123.44 1751.13 2169.32 1748.49 2194.81 1756.75 2220.12 1772.52 2240.1 1773.39 2236.82 1774.27 2233.54 1775.15 2230.26 1764.66 2231.72 1754.18 2233.19 1743.69 2234.71 1736.25 2235.65 1739.29 2246.96 1746.68 2245.96ZM2231.77 1805.21C2242.67 1872.01 2253.63 1938.86 2264.53 2005.66 2265.11 2009.29 2270.15 2011.28 2273.14 2009.23 2300.15 1990.95 2340.35 1984.16 2365.72 2009.06 2388.69 2031.56 2390.21 2068.18 2391.15 2098.24 2391.27 2102.81 2395.95 2105.44 2399.94 2103.34 2423.73 2090.97 2455.19 2080.25 2480.45 2094.66 2500.6 2106.21 2510.04 2131.81 2503.36 2153.78 2501.89 2158.53 2507.69 2163.1 2511.97 2160.35 2552.11 2134.98 2599.86 2120.97 2647.56 2123.02 2669.7 2123.96 2692.44 2129 2710.95 2141.83 2728.42 2153.9 2739.61 2172.59 2746.05 2192.51 2753.38 2215.07 2755.72 2238.8 2757.65 2262.36 2757.89 2265.46 2760.11 2268.28 2763.45 2268.28 2781.91 2268.16 2799.55 2272.67 2815.66 2281.75 2822.22 2285.44 2828.02 2275.31 2821.46 2271.56 2803.71 2261.54 2783.9 2256.38 2763.51 2256.5 2765.45 2258.49 2767.38 2260.43 2769.31 2262.42 2765.8 2219.35 2760.64 2169.49 2726.13 2139.02 2689.22 2106.44 2632.91 2107.09 2587.5 2116.81 2558.61 2123.02 2531.01 2134.51 2506.05 2150.27 2508.92 2152.44 2511.79 2154.66 2514.67 2156.83 2522.63 2130.46 2511.38 2100.17 2487.95 2085.52 2458.83 2067.3 2422.03 2078.61 2394.08 2093.2 2397.01 2094.9 2399.94 2096.6 2402.87 2098.3 2401.81 2063.84 2399.12 2022.18 2370.93 1997.93 2341.4 1972.55 2297.63 1978.53 2267.22 1999.1 2270.09 2000.27 2272.97 2001.5 2275.84 2002.67 2264.94 1935.87 2253.98 1869.02 2243.08 1802.22 2241.91 1794.84 2230.6 1797.83 2231.77 1805.21ZM2187.07 2303.97C2154.2 2280.65 2109.73 2275.26 2071.99 2289.26 2035.02 2302.97 2007.83 2334.67 1997.7 2372.52 1992.13 2393.32 1991.9 2415.36 1997.46 2436.22 1999.87 2433.81 2002.27 2431.47 2004.67 2429.07 1982.58 2420.4 1956.27 2429.3 1942.09 2447.82 1938.64 2452.33 1935.94 2457.31 1934.18 2462.76 1931.78 2470.26 1932.42 2477.58 1924.4 2481.51 1907.93 2489.54 1889.77 2495.04 1872.72 2501.66 1865.74 2504.36 1868.67 2515.73 1875.65 2513.03 1891.7 2506.82 1907.82 2500.67 1923.81 2494.4 1929.44 2492.17 1935.06 2489.83 1938.93 2484.97 1943.15 2479.63 1943.26 2472.95 1945.2 2466.68 1952.17 2443.77 1979.89 2431.88 2001.62 2440.38 2005.84 2442.02 2009.83 2437.15 2008.83 2433.23 1997.35 2390.28 2013.58 2341.24 2049.44 2314.46 2087.7 2285.92 2142.78 2286.68 2181.27 2314.05 2187.42 2318.5 2193.17 2308.31 2187.07 2303.97ZM2235.24 2201.07C2267.93 2177.05 2314.28 2174.41 2348.73 2196.56 2381.72 2217.71 2399.3 2259.78 2392.21 2298.16 2391.51 2302.09 2394.85 2307.01 2399.36 2305.37 2426.84 2295.29 2461.35 2314.8 2464.69 2344.63 2465.1 2348.49 2467.97 2351.13 2472.02 2350.31 2514.61 2341.58 2561.9 2337.3 2602.8 2355.17 2635.55 2369.53 2663.03 2397.48 2668.83 2433.69 2670 2441.13 2681.37 2438.14 2680.2 2430.76 2673.99 2391.79 2643.93 2360.51 2608.6 2345.04 2564.65 2325.76 2514.91 2329.63 2469.03 2339 2471.49 2340.88 2473.89 2342.81 2476.35 2344.68 2472.19 2308.01 2431.7 2281.11 2396.31 2294.06 2398.72 2296.46 2401.06 2298.86 2403.46 2301.27 2411.43 2258.14 2392.8 2212.26 2356.23 2187.65 2318.62 2162.28 2265.59 2164.33 2229.26 2191.05 2223.34 2195.33 2229.15 2205.58 2235.24 2201.07Z"></path>
  <path fill="#31DECD" d="M771.625 1526.37C771.625 1526.37 516.039 1542.54 391.235 1633.95C266.371 1725.35 165.766 2119.69 183.402 2271.62C201.039 2423.56 345.004 2539.86 774.496 2321.02C774.496 2321.02 765.883 2212.97 755.043 2148.81C755.043 2148.81 625.727 2154.38 463.774 2176.99C463.774 2176.99 507.016 2031.27 529.106 1952.52C529.106 1952.52 508.363 2249.01 540.063 2527.56C540.063 2527.56 966.274 2567.11 1343.85 2510.39L1342.74 2417.35C1342.74 2417.35 1542.78 2476.99 1625.75 2407.68C1708.71 2338.36 1658.68 2083.07 1592.29 1891.35C1525.9 1699.63 1419.03 1508.79 1020.71 1523.97L905.57 1549.75L771.625 1526.37Z"></path>
  <path fill="#1B81A6" d="M820.96 1636.58L877.796 1709.18L818.733 2397.77L923.733 2501.66L1039.16 2400.11L952.854 1703.08L1004.36 1635.88L943.831 1544.59L865.198 1540.66L820.96 1636.58Z"></path>
  <path fill="#31DECD" d="M1004.12 1694.18C984.144 1644.38 950.336 1600.2 907.445 1567.91C861.859 1606.99 822.719 1652.52 791.137 1702.73C761.488 1653.16 737.406 1602.42 719.535 1549.57C732.543 1511.02 752.172 1481.25 777.836 1456.52C820.082 1484.77 862.914 1512.01 907.738 1535.92C953.031 1513.89 997.855 1490.86 1040.51 1466.6C1059.14 1485.23 1075.49 1506.21 1088.44 1527.54C1072.56 1587.3 1043.68 1643.61 1004.12 1694.18Z"></path>
  <path fill="#FFC5A6" d="M724.105 2187.6C756.155 2174.07 785.804 2154.9 811.409 2131.29C843.343 2101.82 871.233 2064.03 912.894 2051.78C925.433 2048.09 940.081 2047.33 950.569 2055.12C961.761 2063.38 964.925 2078.73 964.983 2092.68C965.101 2124.08 953.323 2155.08 933.987 2179.87C914.651 2204.65 888.108 2223.34 858.987 2235.18C838.831 2243.38 817.503 2248.36 796.116 2252.52C780.472 2255.57 764.417 2258.15 748.714 2255.28C733.069 2252.46 717.718 2243.21 711.566 2228.5C705.472 2213.79 711.331 2192.99 724.105 2187.6Z"></path>
  <path fill="#203752" d="M1238.67 2468.85C1101.15 2468.61 963.573 2475.23 826.698 2488.53C847.733 2295.47 892.03 2110.9 936.21 1926.74C1074.08 1902.48 1215.58 1897.15 1358.73 1910.21C1325.68 2056.23 1292.64 2202.3 1259.59 2348.32C1250.51 2388.69 1241.37 2429.12 1238.67 2468.85Z"></path>
  <path fill="#FFC5A6" d="M729.432 2216.72C768.865 2193.64 808.299 2170.55 847.732 2147.46C857.869 2141.55 868.123 2135.57 879.373 2132.23C905.506 2124.5 933.572 2131.82 960.818 2130.71C975.701 2130.12 990.408 2127.01 1005.23 2125.49C1023.87 2123.62 1045.6 2125.84 1056.5 2141.08C1066.4 2154.96 1063.3 2174.18 1057.62 2190.24C1051.35 2208.05 1042.32 2224.98 1030.08 2239.34C998.025 2276.78 947.576 2292.37 899.236 2302.09C857.225 2310.59 813.924 2316.04 771.502 2310C757.557 2308.01 743.318 2304.61 732.068 2296.12C707.811 2278.07 702.713 2232.37 729.432 2216.72Z"></path>
  <path fill="#31DECD" d="M601.874 2402.28C587.636 2322.12 598.476 2239.57 589.394 2159.64C644.53 2149.39 700.839 2145.29 758.085 2148.16C764.589 2205.82 771.151 2263.53 776.835 2321.77C722.812 2357.34 657.069 2369.64 601.874 2402.28Z"></path>
  <path fill="#203752" d="M2482.79 2002.5C2488.12 1939.98 2493.51 1877.11 2487.94 1814.59C2482.38 1752.07 2465.39 1689.37 2429.47 1637.93C2419.45 1623.51 2407.91 1610.04 2393.96 1599.31C2370.35 1581.09 2341.23 1571.83 2312.81 1562.93C2261.01 1546.7 2207.16 1530.23 2153.37 1537.32C2135.03 1539.72 2117.1 1544.88 2099.41 1550.39C2026.28 1573.06 1950.23 1605.99 1909.8 1671.03C1886.42 1708.65 1877.46 1753.36 1872.3 1797.3C1864.62 1863.1 1864.62 1929.78 1872.24 1995.58C1838.08 1951.76 1811.95 1912.91 1787.57 1872.95C1747.08 1806.56 1711.17 1736.36 1692.3 1660.9C1673.43 1585.43 1672.5 1503.86 1700.56 1431.33C1737.42 1335.99 1825.48 1262.28 1915.66 1241.19C1954.1 1238.02 1992.59 1235.45 2031.03 1232.34C2056.69 1230.23 2082.3 1228.59 2108.02 1230.17C2134.92 1231.81 2161.69 1235.04 2187.94 1241.36C2204.23 1245.29 2219.82 1251.21 2236.05 1255.31C2287.26 1268.32 2337.89 1274.82 2387.51 1278.34C2482.73 1300.6 2563.76 1370.92 2606.42 1458.98C2649.08 1547.05 2654.53 1650.82 2629.21 1745.27C2604.08 1839.78 2549.23 1924.98 2482.79 2002.5Z"></path>
  <path fill="#1B81A6" d="M2336.43 1625.86C2272.21 1572.37 2182.91 1553.79 2100.41 1567.15C2050.08 1575.3 1998.34 1597.33 1971.98 1640.98C1979.42 1687.21 1990.73 1734.09 2007.89 1781.72C2103.75 1780.96 2186.37 1784.3 2283.64 1778.91C2299.57 1735.61 2325.36 1681.59 2336.43 1625.86Z"></path>
  <path fill="#31DECD" d="M2357.81 1640.33C2214.37 1709.65 1962.07 1665.76 1962.07 1665.76C1962.07 1665.76 1778.73 1390.43 1865.45 1019.76C1895.27 892.322 1937.64 784.334 1980.47 697.439C2035.84 584.998 2091.91 508.064 2122.21 470.154C2134.04 455.388 2156.42 455.213 2168.38 469.861C2199.08 507.302 2255.45 582.888 2308.12 689.295C2354.53 782.927 2398.07 900.525 2418.81 1037.11C2474.24 1401.79 2357.81 1640.33 2357.81 1640.33Z"></path>
  <path fill="#203752" d="M2308.13 689.295C2175 748.24 2038.89 716.424 1980.47 697.439C2035.84 584.998 2091.91 508.064 2122.21 470.154C2134.04 455.388 2156.43 455.213 2168.38 469.861C2199.08 507.302 2255.45 582.888 2308.13 689.295Z"></path>
  <path fill="#1B81A6" d="M2089.52 879.904C1991.49 914.357 1978.54 1069.4 2064.03 1121.31 2149.52 1173.22 2260.55 1142.58 2284.28 1031.49 2306.78 926.076 2190.71 844.337 2089.52 879.904ZM1304.35 528.813C1132.97 589.164 1110.35 860.629 1259.76 951.508 1409.18 1042.39 1603.24 988.715 1644.73 794.242 1684.16 609.731 1481.25 466.527 1304.35 528.813Z"></path>
  <path fill="#203752" d="M2149.92 2064.14C2149.92 2064.14 1938.74 1704.14 2143.47 1281.44C2143.47 1281.44 2318.55 1531.81 2149.92 2064.14Z"></path>
  <path fill="#31DECD" d="M1560.35 676.059C1501.58 748.539 1446.33 806.488 1377.65 869.652C1337.17 843.93 1301.89 812.348 1271.07 776.957C1281.68 761.781 1294.63 746.371 1311.44 732.836C1331.31 751 1352.17 768.051 1375.84 783.988C1421.01 736.469 1465.43 688.305 1511.13 638.969C1527.95 652.094 1542.95 664.34 1560.35 676.059Z"></path>
  <path fill="#203752" d="M723.168 1547.82C739.399 1600.2 763.012 1650 793.539 1695.53C796 1699.22 801.274 1699.46 803.676 1695.53C833.266 1647.25 869.77 1603.6 911.899 1565.75C917.524 1560.71 909.145 1552.5 903.578 1557.54C860.688 1596.04 823.598 1640.63 793.481 1689.73C796.879 1689.73 800.277 1689.73 803.617 1689.73C773.676 1645.02 750.356 1596.33 734.477 1544.89C732.25 1537.68 720.883 1540.61 723.168 1547.82Z"></path>
  <path fill="#203752" d="M907.499 1570.02C945.233 1600.49 976.171 1638.11 998.729 1681C1000.84 1684.98 1006.76 1684.69 1008.87 1681C1037.46 1630.84 1061.95 1578.46 1082.28 1524.38C1084.92 1517.29 1073.61 1514.36 1070.98 1521.33C1051 1574.42 1026.8 1625.86 998.671 1675.14C1002.07 1675.14 1005.47 1675.14 1008.81 1675.14C985.839 1631.43 954.081 1592.7 915.644 1561.64C909.901 1557.01 901.64 1565.28 907.499 1570.02Z"></path>
  <path fill="#203752" d="M832.494 1658.91C840.229 1669.39 847.963 1679.94 855.639 1690.43C859.506 1695.7 863.315 1700.98 867.24 1706.19C870.111 1710.06 872.572 1713.87 877.787 1714.16C882.65 1714.45 887.572 1711.41 892.143 1710C898.236 1708.12 904.447 1706.84 910.775 1706.31C923.666 1705.14 936.322 1706.72 948.627 1710.53C951.088 1711.29 953.959 1709.94 955.248 1707.77C964.682 1691.72 975.522 1676.66 987.885 1662.71C992.865 1657.09 984.545 1648.83 979.564 1654.51C966.557 1669.22 955.014 1685.04 945.053 1701.97C947.279 1701.03 949.447 1700.16 951.674 1699.22C931.107 1692.77 908.608 1692.42 887.983 1699.04C886.108 1699.63 882.709 1701.56 880.717 1701.68C879.135 1702.97 878.022 1702.5 877.377 1700.33C876.85 1699.57 876.264 1698.81 875.736 1698.1C871.869 1692.89 868.002 1687.62 864.135 1682.34C856.986 1672.56 849.779 1662.83 842.631 1653.05C838.178 1647.07 827.983 1652.87 832.494 1658.91Z"></path>
  <path fill="#203752" d="M946.108 1711.76C951.03 1786.35 961.987 1860.41 979.038 1933.19 980.737 1940.57 992.104 1937.58 990.405 1930.26 973.589 1858.48 962.69 1785.41 957.827 1711.82 957.358 1704.32 945.64 1704.2 946.108 1711.76ZM869.411 1715.22C860.388 1835.04 853.122 1954.92 847.614 2074.92 847.263 2082.48 858.981 2082.48 859.333 2074.98 864.841 1954.98 872.106 1835.04 881.13 1715.27 881.716 1707.72 869.938 1707.72 869.411 1715.22ZM528.282 1861.46C521.603 1963.24 517.853 2065.13 517.032 2167.14 516.974 2174.7 528.693 2174.76 528.751 2167.2 529.572 2065.25 533.322 1963.3 540.001 1861.52 540.47 1853.96 528.751 1853.96 528.282 1861.46Z"></path>
  <path fill="#203752" d="M438.922 2189.82C543.512 2169.49 649.567 2157.48 756.032 2153.73C763.59 2153.49 763.649 2141.71 756.09 2142.01C648.629 2145.76 541.52 2157.94 435.993 2178.45C428.551 2179.92 431.54 2191.23 438.922 2189.82Z"></path>
  <path fill="#203752" d="M516.095 2429.53C574.279 2408.56 631.993 2386.29 689.239 2362.8 702.95 2357.17 716.603 2351.49 730.196 2345.75 743.321 2340.18 757.97 2335.55 770.275 2328.28 781.056 2321.96 783.107 2311.76 782.345 2299.98 781.232 2284.16 779.708 2268.4 778.185 2252.64 774.845 2218.19 770.685 2183.85 765.939 2149.57 764.884 2142.13 753.575 2145.12 754.571 2152.5 758.614 2181.51 762.189 2210.51 765.177 2239.63 766.642 2253.99 767.989 2268.28 769.22 2282.64 769.747 2289.14 770.45 2295.65 770.802 2302.15 771.212 2310 769.864 2315.34 762.482 2319.09 750.236 2325.36 736.993 2330.16 724.337 2335.49 710.802 2341.23 697.208 2346.86 683.614 2352.43 657.189 2363.27 630.704 2373.81 604.044 2384.12 573.868 2395.78 543.575 2407.09 513.107 2418.05 506.075 2420.75 509.005 2432.11 516.095 2429.53ZM1316.72 1828.31C1316.67 1864.46 1318.54 1900.55 1322.41 1936.47 1323.23 1943.91 1334.95 1944.03 1334.13 1936.53 1330.26 1900.61 1328.38 1864.52 1328.44 1828.36 1328.44 1820.81 1316.72 1820.75 1316.72 1828.31ZM1227.77 2363.9C1300.01 2409.26 1382.57 2437.26 1467.48 2445.64 1492.03 2448.1 1516.69 2448.81 1541.36 2447.87 1548.92 2447.58 1548.98 2435.86 1541.42 2436.15 1433.26 2440.13 1325.27 2411.19 1233.63 2353.71 1227.18 2349.72 1221.38 2359.92 1227.77 2363.9ZM1304.88 2145.76C1360.19 2166.5 1418.43 2178.4 1477.44 2181.09 1485 2181.44 1485 2169.73 1477.5 2169.37 1419.49 2166.68 1362.3 2154.84 1307.93 2134.39 1300.84 2131.81 1297.85 2143.12 1304.88 2145.76ZM867.776 2137.27C912.659 2122.8 962.053 2137.15 1005.53 2116.35 1012.33 2113.07 1006.47 2102.99 999.67 2106.21 957.659 2126.31 908.499 2111.84 864.788 2125.96 857.639 2128.25 860.569 2139.61 867.776 2137.27Z"></path>
</svg>
