<svg width="166" height="97" viewBox="0 0 166 97" fill="none" xmlns="http://www.w3.org/2000/svg">
<mask id="mask0_637_284" style="mask-type:luminance" maskUnits="userSpaceOnUse" x="0" y="0" width="166" height="97">
<path d="M165.66 0.5H0.339844V96.5H165.66V0.5Z" fill="white"/>
</mask>
<g mask="url(#mask0_637_284)">
<g opacity="0.1">
<path d="M121.89 95.0855C123.654 95.0855 125.085 93.2135 125.085 90.9045C125.085 88.5945 123.654 86.7227 121.89 86.7227C120.125 86.7227 118.695 88.5945 118.695 90.9045C118.695 93.2135 120.125 95.0855 121.89 95.0855Z" fill="#0F085E"/>
<path d="M124.415 73.0145C124.862 72.2376 125.095 71.3554 125.087 70.4588C125.087 68.1446 123.657 66.2773 121.892 66.2773C120.128 66.2773 118.699 68.1489 118.699 70.4588C118.69 71.3548 118.92 72.2371 119.366 73.0145C118.928 73.7951 118.699 74.6748 118.699 75.5695C118.699 76.4642 118.928 77.3439 119.366 78.1245C118.928 78.9054 118.699 79.7854 118.699 80.6803C118.699 81.5752 118.928 82.4552 119.366 83.236C118.92 84.0135 118.69 84.8957 118.699 85.7918C118.699 88.1057 120.129 89.9737 121.892 89.9737C123.656 89.9737 125.087 88.1017 125.087 85.7918C125.096 84.8957 124.866 84.0135 124.421 83.236C124.858 82.4552 125.087 81.5752 125.087 80.6803C125.087 79.7854 124.858 78.9054 124.421 78.1245C124.858 77.3439 125.087 76.4642 125.087 75.5695C125.087 74.6748 124.858 73.7951 124.421 73.0145H124.415Z" fill="#0F085E"/>
<path d="M121.89 69.5309C123.654 69.5309 125.085 67.6588 125.085 65.3495C125.085 63.0401 123.654 61.168 121.89 61.168C120.125 61.168 118.695 63.0401 118.695 65.3495C118.695 67.6588 120.125 69.5309 121.89 69.5309Z" fill="#0F085E"/>
<path d="M121.89 64.4215C123.654 64.4215 125.085 62.5494 125.085 60.24C125.085 57.9307 123.654 56.0586 121.89 56.0586C120.125 56.0586 118.695 57.9307 118.695 60.24C118.695 62.5494 120.125 64.4215 121.89 64.4215Z" fill="#0F085E"/>
<path d="M133.846 25.2619C134.282 24.706 134.679 24.1208 135.035 23.5104L126.646 22.132L135.725 22.2C136.595 20.305 137.07 18.2526 137.119 16.168C137.169 14.0835 136.793 12.0107 136.014 10.0765L123.833 16.3913L135.068 8.13827C134.015 6.32117 132.6 4.74027 130.91 3.49397C129.219 2.24767 127.29 1.36257 125.243 0.89387C123.196 0.42507 121.075 0.38277 119.01 0.76947C116.946 1.15617 114.984 1.96357 113.245 3.14147C111.506 4.31937 110.029 5.84257 108.904 7.61617C107.78 9.38987 107.032 11.376 106.708 13.451C106.385 15.526 106.491 17.6454 107.022 19.6774C107.553 21.7093 108.496 23.6103 109.793 25.2619C109.113 26.1267 108.528 27.0621 108.049 28.052L118.944 33.7131L107.327 29.8079C106.51 32.2184 106.306 34.7947 106.736 37.3036C107.165 39.8125 108.213 42.1746 109.786 44.1761C108.011 46.4331 106.906 49.1441 106.599 51.9991C106.292 54.8541 106.794 57.738 108.049 60.321C109.303 62.9039 111.259 65.0817 113.693 66.6054C116.127 68.129 118.941 68.937 121.812 68.937C124.684 68.937 127.497 68.129 129.931 66.6054C132.365 65.0817 134.321 62.9039 135.576 60.321C136.83 57.738 137.333 54.8541 137.026 51.9991C136.719 49.1441 135.614 46.4331 133.839 44.1761C135.96 41.4792 137.114 38.1474 137.114 34.7161C137.114 31.2848 135.96 27.9531 133.839 25.2561L133.846 25.2619Z" fill="#332F7B"/>
<path opacity="0.1" d="M106.52 34.7218C106.515 38.1537 107.669 41.4869 109.795 44.181C108.02 46.438 106.915 49.149 106.608 52.004C106.301 54.859 106.803 57.7429 108.058 60.3258C109.313 62.9088 111.269 65.0866 113.703 66.6103C116.137 68.1339 118.95 68.9419 121.822 68.9419C124.693 68.9419 127.507 68.1339 129.941 66.6103C132.375 65.0866 134.331 62.9088 135.585 60.3258C136.84 57.7429 137.342 54.859 137.035 52.004C136.728 49.149 135.623 46.438 133.848 44.181C135.899 41.5776 106.52 33.0035 106.52 34.7218Z" fill="black"/>
</g>
<g opacity="0.1">
<path d="M32.276 90.6146C33.3496 90.6146 34.2199 89.4746 34.2199 88.0686C34.2199 86.6631 33.3496 85.5234 32.276 85.5234C31.2024 85.5234 30.332 86.6631 30.332 88.0686C30.332 89.4746 31.2024 90.6146 32.276 90.6146Z" fill="#0F085E"/>
<path d="M33.8229 77.18C34.0942 76.7066 34.2345 76.1694 34.2293 75.6237C34.2293 74.2179 33.3615 73.0781 32.2839 73.0781C31.2064 73.0781 30.34 74.2179 30.34 75.6237C30.3343 76.1693 30.4741 76.7064 30.745 77.18C30.4795 77.6555 30.3401 78.191 30.3401 78.7356C30.3401 79.2802 30.4795 79.8157 30.745 80.2912C30.4795 80.7666 30.3401 81.3022 30.3401 81.8467C30.3401 82.3913 30.4795 82.9268 30.745 83.4023C30.4739 83.8753 30.3341 84.4121 30.34 84.9572C30.34 86.3645 31.2078 87.5042 32.2839 87.5042C33.36 87.5042 34.2293 86.3645 34.2293 84.9572C34.2347 84.4119 34.0944 83.8751 33.8229 83.4023C34.0892 82.9271 34.229 82.3915 34.229 81.8467C34.229 81.302 34.0892 80.7664 33.8229 80.2912C34.0892 79.816 34.229 79.2803 34.229 78.7356C34.229 78.1909 34.0892 77.6552 33.8229 77.18Z" fill="#0F085E"/>
<path d="M32.276 75.0561C33.3496 75.0561 34.2199 73.9163 34.2199 72.5104C34.2199 71.1045 33.3496 69.9648 32.276 69.9648C31.2024 69.9648 30.332 71.1045 30.332 72.5104C30.332 73.9163 31.2024 75.0561 32.276 75.0561Z" fill="#0F085E"/>
<path d="M32.276 71.9467C33.3496 71.9467 34.2199 70.807 34.2199 69.4011C34.2199 67.9952 33.3496 66.8555 32.276 66.8555C31.2024 66.8555 30.332 67.9952 30.332 69.4011C30.332 70.807 31.2024 71.9467 32.276 71.9467Z" fill="#0F085E"/>
<path d="M25 48.1077C24.7345 47.7696 24.4929 47.4134 24.2768 47.0417L29.3869 46.2028L23.8603 46.2448C23.3312 45.0918 23.0425 43.8431 23.0119 42.5749C22.9814 41.3066 23.2095 40.0455 23.6824 38.8683L31.0921 42.7171L24.2551 37.6837C24.8964 36.5783 25.7583 35.6166 26.7871 34.8586C27.816 34.1005 28.9899 33.5623 30.2357 33.2774C31.4815 32.9925 32.7726 32.967 34.0287 33.2025C35.2848 33.438 36.479 33.9295 37.537 34.6463C38.595 35.3631 39.4941 36.29 40.1786 37.3693C40.863 38.4485 41.3179 39.6571 41.5152 40.9198C41.7125 42.1824 41.6478 43.4721 41.3253 44.7087C41.0027 45.9453 40.4291 47.1023 39.6402 48.1077C40.054 48.6334 40.41 49.2023 40.7018 49.8043L34.0688 53.2525L41.1415 50.879C41.6382 52.3469 41.7611 53.9156 41.499 55.443C41.2368 56.9704 40.598 58.4083 39.6402 59.6266C40.7208 61.0006 41.393 62.6509 41.5799 64.3889C41.7668 66.1268 41.4609 67.8823 40.6972 69.4547C39.9334 71.027 38.7427 72.3527 37.261 73.2802C35.7794 74.2077 34.0667 74.6995 32.3187 74.6995C30.5707 74.6995 28.8579 74.2077 27.3763 73.2802C25.8947 72.3527 24.7039 71.027 23.9402 69.4547C23.1764 67.8823 22.8705 66.1268 23.0574 64.3889C23.2443 62.6509 23.9165 61.0006 24.9971 59.6266C23.7059 57.9845 23.0039 55.9561 23.0039 53.8672C23.0039 51.7782 23.7059 49.7498 24.9971 48.1077H25Z" fill="#332F7B"/>
<path opacity="0.1" d="M41.6332 53.8676C41.6363 55.957 40.934 57.9864 39.6401 59.627C40.7207 61.001 41.3928 62.6513 41.5798 64.3893C41.7667 66.1272 41.4608 67.8827 40.697 69.4551C39.9333 71.0274 38.7425 72.3531 37.2609 73.2805C35.7793 74.208 34.0665 74.6999 32.3185 74.6999C30.5705 74.6999 28.8578 74.208 27.3762 73.2805C25.8945 72.3531 24.7038 71.0274 23.94 69.4551C23.1763 67.8827 22.8704 66.1272 23.0573 64.3893C23.2442 62.6513 23.9164 61.001 24.997 59.627C23.7488 58.049 41.6332 52.8218 41.6332 53.8676Z" fill="black"/>
</g>
<g opacity="0.1">
<path d="M76.102 92.8285C77.539 92.8285 78.704 91.3035 78.704 89.4215C78.704 87.5406 77.539 86.0156 76.102 86.0156C74.665 86.0156 73.5 87.5406 73.5 89.4215C73.5 91.3035 74.665 92.8285 76.102 92.8285Z" fill="#0F085E"/>
<path d="M78.1652 74.8484C78.5282 74.2146 78.7152 73.4957 78.7072 72.7656C78.7072 70.8853 77.5502 69.3594 76.1042 69.3594C74.6582 69.3594 73.5002 70.8853 73.5002 72.7656C73.4932 73.4959 73.6812 74.215 74.0442 74.8484C73.6882 75.4844 73.5012 76.2013 73.5012 76.9304C73.5012 77.6595 73.6882 78.3765 74.0442 79.0125C73.6882 79.6482 73.5002 80.3649 73.5002 81.0938C73.5002 81.8227 73.6882 82.5394 74.0442 83.1751C73.6812 83.8085 73.4932 84.5276 73.5002 85.2579C73.5002 87.1382 74.6662 88.6645 76.1042 88.6645C77.5422 88.6645 78.7072 87.1382 78.7072 85.2579C78.7152 84.5278 78.5282 83.8089 78.1652 83.1751C78.5212 82.5391 78.7072 81.8225 78.7072 81.0938C78.7072 80.3651 78.5212 79.6485 78.1652 79.0125C78.5212 78.3762 78.7072 77.6594 78.7072 76.9304C78.7072 76.2015 78.5212 75.4847 78.1652 74.8484Z" fill="#0F085E"/>
<path d="M76.102 72.0077C77.539 72.0077 78.704 70.4827 78.704 68.6015C78.704 66.7203 77.539 65.1953 76.102 65.1953C74.665 65.1953 73.5 66.7203 73.5 68.6015C73.5 70.4827 74.665 72.0077 76.102 72.0077Z" fill="#0F085E"/>
<path d="M76.102 67.8437C77.539 67.8437 78.704 66.3187 78.704 64.4375C78.704 62.5563 77.539 61.0312 76.102 61.0312C74.665 61.0312 73.5 62.5563 73.5 64.4375C73.5 66.3187 74.665 67.8437 76.102 67.8437Z" fill="#0F085E"/>
<path d="M66.3687 35.945C66.0127 35.4926 65.6887 35.0161 65.3997 34.5189L72.2367 33.3965L64.8427 33.4514C64.1327 31.9078 63.7457 30.2357 63.7047 28.5374C63.6637 26.8391 63.9697 25.1502 64.6037 23.5742L74.5257 28.7204L65.3747 21.9947C66.2297 20.509 67.3817 19.2155 68.7597 18.1951C70.1367 17.1747 71.7097 16.4494 73.3807 16.0645C75.0507 15.6795 76.7827 15.6432 78.4677 15.9578C80.1527 16.2724 81.7547 16.9311 83.1737 17.8928C84.5927 18.8545 85.7987 20.0986 86.7147 21.5472C87.6317 22.9958 88.2387 24.6179 88.5007 26.3121C88.7617 28.0062 88.6707 29.7361 88.2337 31.3935C87.7957 33.051 87.0217 34.6004 85.9577 35.945C86.5117 36.6497 86.9877 37.412 87.3787 38.2187L78.5037 42.8297L87.9667 39.6477C88.6317 41.612 88.7967 43.7111 88.4457 45.755C88.0947 47.7988 87.2397 49.723 85.9577 51.3532C87.4037 53.1918 88.3037 55.4003 88.5537 57.726C88.8037 60.0518 88.3947 62.401 87.3727 64.505C86.3507 66.6091 84.7567 68.3831 82.7747 69.6243C80.7917 70.8654 78.4997 71.5236 76.1607 71.5236C73.8217 71.5236 71.5297 70.8654 69.5467 69.6243C67.5637 68.3831 65.9707 66.6091 64.9487 64.505C63.9267 62.401 63.5167 60.0518 63.7667 57.726C64.0167 55.4003 64.9167 53.1918 66.3627 51.3532C64.6347 49.1557 63.6957 46.4415 63.6957 43.6462C63.6957 40.8509 64.6347 38.1366 66.3627 35.9392L66.3687 35.945Z" fill="#332F7B"/>
<path opacity="0.1" d="M88.6257 43.6527C88.6297 46.4485 87.6897 49.1639 85.9577 51.359C87.4037 53.1976 88.3037 55.4061 88.5537 57.7318C88.8037 60.0576 88.3947 62.4068 87.3727 64.5108C86.3507 66.6149 84.7567 68.3889 82.7747 69.6301C80.7917 70.8712 78.4997 71.5294 76.1607 71.5294C73.8217 71.5294 71.5297 70.8712 69.5467 69.6301C67.5637 68.3889 65.9707 66.6149 64.9487 64.5108C63.9267 62.4068 63.5167 60.0576 63.7667 57.7318C64.0167 55.4061 64.9167 53.1976 66.3627 51.359C64.6917 49.2386 88.6257 42.2526 88.6257 43.6527Z" fill="black"/>
</g>
<path d="M165.658 92.5238C165.658 93.5178 158.394 94.4258 146.385 95.1268C144.201 95.2528 141.861 95.3728 139.379 95.4858C137.234 95.5828 134.987 95.6738 132.636 95.7598C130.358 95.8408 127.994 95.9158 125.542 95.9848C117.798 96.2058 109.237 96.3658 100.142 96.4448C97.9352 96.4648 95.6982 96.4808 93.4322 96.4908C91.0722 96.5018 88.6842 96.5068 86.2702 96.5058C42.4245 96.5058 6.88281 94.7248 6.88281 92.5278C6.88281 90.3308 42.4245 88.5508 86.2702 88.5508C105.146 88.5508 122.481 88.8818 136.106 89.4318L137.596 89.4918H137.604C154.767 90.2198 165.658 91.3148 165.658 92.5238Z" fill="#3F3D56"/>
<path opacity="0.15" d="M165.658 92.5238C165.658 93.5178 158.394 94.4258 146.385 95.1268C144.201 95.2528 141.861 95.3728 139.379 95.4858C137.234 95.5828 134.987 95.6738 132.636 95.7598C130.358 95.8408 127.994 95.9158 125.542 95.9848C117.798 96.2058 109.237 96.3658 100.142 96.4448C97.9352 96.4648 95.6982 96.4808 93.4322 96.4908C91.0722 96.5018 88.6842 96.5068 86.2702 96.5058C42.4245 96.5058 6.88281 94.7248 6.88281 92.5278C6.88281 90.3308 42.4245 88.5508 86.2702 88.5508C105.146 88.5508 122.481 88.8818 136.106 89.4318L137.596 89.4918H137.604C154.767 90.2198 165.658 91.3148 165.658 92.5238Z" fill="black"/>
<path d="M159.115 91.8232C159.115 92.6532 151.852 93.4142 139.842 93.9932C137.66 94.0982 135.318 94.1982 132.838 94.2922C130.692 94.3732 128.444 94.4492 126.095 94.5202C123.817 94.5882 121.452 94.6512 119 94.7102C111.255 94.8952 102.694 95.0282 93.599 95.0952C91.394 95.1112 89.157 95.1242 86.889 95.1322C84.529 95.1412 82.142 95.1452 79.728 95.1452C35.883 95.1452 0.339844 93.6572 0.339844 91.8192C0.339844 89.9802 35.883 88.4922 79.728 88.4922C98.603 88.4922 115.938 88.7682 129.563 89.2282L131.053 89.2792H131.063C148.231 89.8962 159.115 90.8062 159.115 91.8232Z" fill="#3F3D56"/>
<path d="M20.8447 61.6049L18.8516 55.5027L66.5821 54.9805L68.5371 61.022L20.8447 61.6049Z" fill="#3F3D56"/>
<path opacity="0.15" d="M20.8447 61.6049L18.8516 55.5027L66.5821 54.9805L68.5371 61.022L20.8447 61.6049Z" fill="black"/>
<path d="M17.6611 61.6049L15.668 55.5027L63.3985 54.9805L65.3535 61.022L17.6611 61.6049Z" fill="#3F3D56"/>
<path d="M99.1439 52.2266C94.2089 52.2266 90.3199 50.2677 87.4759 46.3499C84.6319 42.4322 83.2109 37.6862 83.2109 32.1119C83.2109 26.4999 84.5859 21.7636 87.3359 17.9027C90.0859 14.0419 93.9649 12.1134 98.9729 12.1172C104.284 12.1172 108.286 14.1513 110.978 18.2195C113.67 22.2876 115.017 26.996 115.018 32.3447C115.018 37.6548 113.625 42.2967 110.838 46.2704C108.051 50.2441 104.153 52.2294 99.1439 52.2266ZM99.2889 47.8195C102.535 47.8195 104.962 46.4044 106.568 43.5744C108.175 40.7443 108.978 37.1766 108.978 32.8712C108.978 28.0789 108.156 24.1549 106.512 21.0992C104.868 18.0435 102.346 16.5152 98.9469 16.5142C92.4869 16.5142 89.2569 21.6459 89.2569 31.9094C89.2569 42.5171 92.5999 47.8204 99.2859 47.8195H99.2889ZM100.914 90.0235H93.7759L140.506 12.9026H147.509L100.914 90.0235ZM142.254 90.8145C137.245 90.8145 133.34 88.8375 130.539 84.8842C127.738 80.9308 126.331 76.1842 126.32 70.6446C126.32 65.0703 127.685 60.3527 130.416 56.4919C133.147 52.6311 137.036 50.7026 142.082 50.7064C147.356 50.7064 151.33 52.7405 154.003 56.8087C156.677 60.8768 158.015 65.5848 158.016 70.9325C158.016 76.2079 156.631 80.8411 153.863 84.8321C151.095 88.8235 147.224 90.8175 142.252 90.8145H142.254ZM142.338 86.2944C145.57 86.2944 147.983 84.9035 149.579 82.1216C151.175 79.3397 151.973 75.7865 151.973 71.4618C151.973 66.8335 151.165 62.9519 149.55 59.8171C147.935 56.6823 145.419 55.1125 142.001 55.1077C135.503 55.1077 132.254 60.2394 132.254 70.5029C132.252 81.0315 135.613 86.2953 142.335 86.2944H142.338Z" fill="#3F3D56"/>
<path d="M99.1439 52.2266C94.2089 52.2266 90.3199 50.2677 87.4759 46.3499C84.6319 42.4322 83.2109 37.6862 83.2109 32.1119C83.2109 26.4999 84.5859 21.7636 87.3359 17.9027C90.0859 14.0419 93.9649 12.1134 98.9729 12.1172C104.284 12.1172 108.286 14.1513 110.978 18.2195C113.67 22.2876 115.017 26.996 115.018 32.3447C115.018 37.6548 113.625 42.2967 110.838 46.2704C108.051 50.2441 104.153 52.2294 99.1439 52.2266ZM99.2889 47.8195C102.535 47.8195 104.962 46.4044 106.568 43.5744C108.175 40.7443 108.978 37.1766 108.978 32.8712C108.978 28.0789 108.156 24.1549 106.512 21.0992C104.868 18.0435 102.346 16.5152 98.9469 16.5142C92.4869 16.5142 89.2569 21.6459 89.2569 31.9094C89.2569 42.5171 92.5999 47.8204 99.2859 47.8195H99.2889ZM100.914 90.0235H93.7759L140.506 12.9026H147.509L100.914 90.0235ZM142.254 90.8145C137.245 90.8145 133.34 88.8375 130.539 84.8842C127.738 80.9308 126.331 76.1842 126.32 70.6446C126.32 65.0703 127.685 60.3527 130.416 56.4919C133.147 52.6311 137.036 50.7026 142.082 50.7064C147.356 50.7064 151.33 52.7405 154.003 56.8087C156.677 60.8768 158.015 65.5848 158.016 70.9325C158.016 76.2079 156.631 80.8411 153.863 84.8321C151.095 88.8235 147.224 90.8175 142.252 90.8145H142.254ZM142.338 86.2944C145.57 86.2944 147.983 84.9035 149.579 82.1216C151.175 79.3397 151.973 75.7865 151.973 71.4618C151.973 66.8335 151.165 62.9519 149.55 59.8171C147.935 56.6823 145.419 55.1125 142.001 55.1077C135.503 55.1077 132.254 60.2394 132.254 70.5029C132.252 81.0315 135.613 86.2953 142.335 86.2944H142.338Z" fill="#3F3D56"/>
<path opacity="0.15" d="M99.1439 52.2266C94.2089 52.2266 90.3199 50.2677 87.4759 46.3499C84.6319 42.4322 83.2109 37.6862 83.2109 32.1119C83.2109 26.4999 84.5859 21.7636 87.3359 17.9027C90.0859 14.0419 93.9649 12.1134 98.9729 12.1172C104.284 12.1172 108.286 14.1513 110.978 18.2195C113.67 22.2876 115.017 26.996 115.018 32.3447C115.018 37.6548 113.625 42.2967 110.838 46.2704C108.051 50.2441 104.153 52.2294 99.1439 52.2266ZM99.2889 47.8195C102.535 47.8195 104.962 46.4044 106.568 43.5744C108.175 40.7443 108.978 37.1766 108.978 32.8712C108.978 28.0789 108.156 24.1549 106.512 21.0992C104.868 18.0435 102.346 16.5152 98.9469 16.5142C92.4869 16.5142 89.2569 21.6459 89.2569 31.9094C89.2569 42.5171 92.5999 47.8204 99.2859 47.8195H99.2889ZM100.914 90.0235H93.7759L140.506 12.9026H147.509L100.914 90.0235ZM142.254 90.8145C137.245 90.8145 133.34 88.8375 130.539 84.8842C127.738 80.9308 126.331 76.1842 126.32 70.6446C126.32 65.0703 127.685 60.3527 130.416 56.4919C133.147 52.6311 137.036 50.7026 142.082 50.7064C147.356 50.7064 151.33 52.7405 154.003 56.8087C156.677 60.8768 158.015 65.5848 158.016 70.9325C158.016 76.2079 156.631 80.8411 153.863 84.8321C151.095 88.8235 147.224 90.8175 142.252 90.8145H142.254ZM142.338 86.2944C145.57 86.2944 147.983 84.9035 149.579 82.1216C151.175 79.3397 151.973 75.7865 151.973 71.4618C151.973 66.8335 151.165 62.9519 149.55 59.8171C147.935 56.6823 145.419 55.1125 142.001 55.1077C135.503 55.1077 132.254 60.2394 132.254 70.5029C132.252 81.0315 135.613 86.2953 142.335 86.2944H142.338Z" fill="black"/>
<path d="M94.6596 52.2266C89.7246 52.2266 85.8356 50.2677 82.9916 46.3499C80.1486 42.4322 78.7266 37.6862 78.7266 32.1119C78.7266 26.4999 80.1016 21.7636 82.8516 17.9027C85.6016 14.0419 89.4806 12.1134 94.4896 12.1172C99.8006 12.1172 103.802 14.1513 106.494 18.2195C109.187 22.2876 110.533 26.996 110.534 32.3447C110.534 37.6548 109.141 42.2967 106.354 46.2704C103.567 50.2441 99.6686 52.2294 94.6596 52.2266ZM94.8046 47.8195C98.0506 47.8195 100.478 46.4044 102.084 43.5744C103.691 40.7443 104.494 37.1766 104.494 32.8712C104.494 28.0789 103.672 24.1549 102.028 21.0992C100.384 18.0435 97.8616 16.5152 94.4626 16.5142C88.0026 16.5142 84.7726 21.6459 84.7726 31.9094C84.7726 42.5171 88.1156 47.8204 94.8016 47.8195H94.8046ZM96.4306 90.0235H89.2926L136.022 12.9026H143.025L96.4306 90.0235ZM137.771 90.8145C132.761 90.8145 128.856 88.8375 126.055 84.8842C123.254 80.9308 121.848 76.1842 121.836 70.6446C121.836 65.0703 123.201 60.3527 125.932 56.4919C128.663 52.6311 132.552 50.7026 137.599 50.7064C142.872 50.7064 146.846 52.7405 149.52 56.8087C152.193 60.8768 153.531 65.5848 153.532 70.9325C153.532 76.2079 152.148 80.8411 149.379 84.8321C146.611 88.8235 142.74 90.8175 137.768 90.8145H137.771ZM137.855 86.2944C141.086 86.2944 143.499 84.9035 145.095 82.1216C146.691 79.3397 147.489 75.7865 147.489 71.4618C147.489 66.8335 146.681 62.9519 145.066 59.8171C143.451 56.6823 140.934 55.1125 137.515 55.1077C131.017 55.1077 127.768 60.2394 127.768 70.5029C127.768 81.0315 131.129 86.2953 137.852 86.2944H137.855Z" fill="#3F3D56"/>
<path d="M110.273 91.9599C110.869 90.8549 110.192 89.5009 109.414 88.5149C108.636 87.5281 107.687 86.504 107.707 85.2471C107.736 83.4435 109.651 82.3775 111.179 81.42C112.315 80.7104 113.362 79.8685 114.3 78.912C114.693 78.5436 115.017 78.1088 115.259 77.6276C115.576 76.9218 115.565 76.1191 115.548 75.3467C115.482 72.7702 115.354 70.1976 115.166 67.6289" stroke="#3F3D56" stroke-width="4" stroke-miterlimit="10"/>
<path d="M118.079 67.4877C118.058 67.0164 117.918 66.5582 117.672 66.1553C117.427 65.7523 117.084 65.4177 116.675 65.1822L116.044 66.429L116.063 64.9189C115.762 64.8311 115.449 64.7934 115.136 64.8076C114.58 64.8336 114.044 65.024 113.596 65.3546C113.148 65.6852 112.809 66.1412 112.62 66.6649C112.431 67.1886 112.402 67.7565 112.536 68.2968C112.67 68.837 112.961 69.3255 113.373 69.7003C113.784 70.075 114.298 70.3194 114.848 70.4023C115.399 70.4853 115.961 70.4032 116.465 70.1663C116.969 69.9295 117.391 69.5486 117.679 69.0718C117.966 68.595 118.105 68.0438 118.079 67.4877Z" fill="#6EBA23"/>
<path d="M113.056 86.542C112.761 87.1158 112.277 87.5707 111.687 87.8302C111.096 88.0902 110.434 88.1382 109.811 87.9677C109.189 87.797 108.644 87.4176 108.268 86.8929C107.892 86.3683 107.708 85.7304 107.747 85.0862C107.786 84.442 108.045 83.8306 108.48 83.3547C108.916 82.8787 109.503 82.5671 110.141 82.4721C110.779 82.3771 111.431 82.5044 111.986 82.8328C112.542 83.1611 112.968 83.6705 113.192 84.2755L111.434 85.706L113.372 85.2547C113.371 85.7028 113.263 86.1442 113.056 86.542Z" fill="#6EBA23"/>
<path d="M111.669 81.0723C111.3 81.0896 110.931 81.034 110.583 80.9087C110.236 80.7834 109.916 80.5908 109.643 80.3419C109.369 80.093 109.148 79.7927 108.99 79.4582C108.833 79.1237 108.743 78.7614 108.726 78.3922C108.704 77.9513 108.787 77.5116 108.969 77.1093C109.137 76.7333 109.386 76.3987 109.697 76.1291C110.008 75.8594 110.375 75.6613 110.771 75.5486L110.755 76.7057L111.393 75.4445C112.139 75.4096 112.868 75.6723 113.42 76.175C113.972 76.6776 114.302 77.3789 114.337 78.1246C114.371 78.8703 114.109 79.5994 113.606 80.1514C113.103 80.7034 112.402 81.0331 111.656 81.068L111.669 81.0723Z" fill="#6EBA23"/>
<path d="M118.502 76.5266C118.129 76.5514 117.754 76.5015 117.4 76.3797C117.046 76.2579 116.719 76.0667 116.44 75.8173C116.161 75.568 115.934 75.2654 115.773 74.9273C115.612 74.5892 115.52 74.2224 115.503 73.8484C115.485 73.4744 115.542 73.1006 115.671 72.7489C115.8 72.3973 115.997 72.0749 116.252 71.8005C116.507 71.5261 116.814 71.3053 117.155 71.151C117.496 70.9966 117.865 70.9119 118.239 70.9017C118.765 70.8761 119.288 70.9999 119.746 71.259L119.249 72.6214L120.273 71.6393C120.822 72.1403 121.15 72.839 121.185 73.5818C121.198 73.8424 121.174 74.1034 121.113 74.3571C120.973 74.9534 120.642 75.4879 120.171 75.8794C119.7 76.2709 119.114 76.4982 118.502 76.5266Z" fill="#6EBA23"/>
<path opacity="0.1" d="M117.699 68.2355C117.05 68.3064 116.419 68.509 115.767 68.5495C115.115 68.59 114.399 68.4337 113.987 67.926C113.764 67.6541 113.654 67.3085 113.466 67.0105C113.288 66.7332 113.045 66.5041 112.757 66.3438C112.576 66.7005 112.474 67.0916 112.456 67.4911C112.439 67.8906 112.506 68.2894 112.655 68.6607C112.803 69.032 113.029 69.3673 113.318 69.6445C113.606 69.9216 113.95 70.1342 114.327 70.268C114.704 70.4017 115.105 70.4536 115.503 70.4202C115.902 70.3868 116.289 70.2688 116.638 70.0742C116.987 69.8796 117.291 69.6127 117.529 69.2915C117.767 68.9702 117.934 68.6019 118.019 68.211C117.912 68.2168 117.806 68.2239 117.699 68.2355Z" fill="black"/>
<path opacity="0.1" d="M118.5 76.5269C118.015 76.549 117.533 76.4454 117.099 76.2261C116.666 76.0068 116.297 75.6793 116.028 75.2753C115.758 74.8714 115.598 74.4046 115.562 73.9204C115.526 73.4362 115.616 72.951 115.823 72.5117C116.046 72.6629 116.238 72.8553 116.389 73.0787C116.59 73.381 116.711 73.731 116.947 74.0087C117.381 74.5251 118.134 74.6929 118.813 74.6625C119.491 74.6321 120.148 74.4383 120.825 74.3732C120.919 74.3645 121.014 74.3587 121.114 74.3559C120.974 74.9529 120.643 75.4881 120.171 75.8799C119.7 76.2718 119.113 76.4989 118.5 76.5269Z" fill="black"/>
<path opacity="0.1" d="M111.669 81.0725C111.3 81.0898 110.931 81.0342 110.583 80.9089C110.236 80.7836 109.916 80.591 109.643 80.3421C109.369 80.0932 109.148 79.7929 108.99 79.4584C108.833 79.1239 108.743 78.7616 108.726 78.3924C108.704 77.9515 108.787 77.5118 108.969 77.1094C109.201 77.264 109.403 77.4602 109.564 77.688C109.782 77.9961 109.919 78.3519 110.175 78.6368C110.65 79.1647 111.448 79.3513 112.167 79.334C112.886 79.3166 113.535 79.1488 114.228 79.0953C114.056 79.6478 113.719 80.134 113.261 80.4877C112.803 80.8415 112.247 81.0457 111.669 81.0725Z" fill="black"/>
<path opacity="0.1" d="M113.057 86.5391C112.73 87.1828 112.167 87.6759 111.487 87.9165C110.806 88.1573 110.058 88.1263 109.399 87.8317C108.74 87.5367 108.219 86.9995 107.945 86.3314C107.671 85.6633 107.664 84.9153 107.926 84.2422C108.157 84.3947 108.366 84.5804 108.543 84.7933C108.811 85.1202 108.987 85.4905 109.297 85.7942C109.875 86.3583 110.801 86.5912 111.628 86.6128C112.106 86.6167 112.583 86.5921 113.057 86.5391Z" fill="black"/>
<path d="M153.808 91.815C154.404 90.71 153.727 89.356 152.949 88.37C152.171 87.3836 151.222 86.3596 151.242 85.1027C151.271 83.2991 153.186 82.2331 154.713 81.2756C155.849 80.566 156.898 79.7241 157.836 78.7676C158.228 78.3991 158.553 77.9644 158.795 77.4832C159.111 76.7774 159.101 75.9746 159.084 75.2023C159.017 72.6258 158.889 70.0532 158.701 67.4844" stroke="#3F3D56" stroke-width="4" stroke-miterlimit="10"/>
<path d="M161.614 67.3393C161.592 66.868 161.452 66.4098 161.207 66.0068C160.961 65.6039 160.619 65.2693 160.21 65.0338L159.579 66.2805L159.598 64.7705C159.297 64.6826 158.984 64.645 158.671 64.6591C158.115 64.6852 157.579 64.8756 157.131 65.2062C156.683 65.5368 156.343 65.9927 156.155 66.5164C155.966 67.0401 155.937 67.608 156.071 68.1483C156.205 68.6886 156.496 69.177 156.908 69.5518C157.319 69.9266 157.833 70.1709 158.383 70.2539C158.934 70.3369 159.496 70.2547 160 70.0179C160.504 69.7811 160.926 69.4002 161.213 68.9234C161.501 68.4466 161.64 67.8953 161.614 67.3393Z" fill="#6EBA23"/>
<path d="M156.595 86.3975C156.3 86.9713 155.816 87.4261 155.225 87.6857C154.635 87.9453 153.972 87.9938 153.35 87.8232C152.728 87.6525 152.183 87.273 151.807 86.7484C151.431 86.2238 151.247 85.5859 151.286 84.9416C151.324 84.2974 151.583 83.6861 152.019 83.2102C152.455 82.7342 153.041 82.4226 153.68 82.3276C154.318 82.2325 154.97 82.3599 155.525 82.6882C156.081 83.0166 156.507 83.526 156.731 84.131L154.972 85.5615L156.911 85.1102C156.91 85.5583 156.802 85.9997 156.595 86.3975Z" fill="#6EBA23"/>
<path d="M155.204 80.9278C154.835 80.9451 154.466 80.8895 154.118 80.7642C153.77 80.6389 153.451 80.4462 153.177 80.1974C152.904 79.9485 152.682 79.6482 152.525 79.3137C152.368 78.9791 152.278 78.6169 152.261 78.2477C152.239 77.8068 152.322 77.367 152.504 76.9647C152.672 76.5887 152.921 76.2541 153.232 75.9845C153.543 75.7149 153.91 75.5168 154.306 75.4041L154.29 76.5612L154.928 75.3H154.935C155.304 75.2827 155.673 75.3383 156.021 75.4636C156.369 75.589 156.689 75.7816 156.962 76.0304C157.235 76.2793 157.457 76.5796 157.614 76.9141C157.771 77.2486 157.861 77.6108 157.879 77.9801C157.896 78.3493 157.84 78.7184 157.715 79.0661C157.59 79.4139 157.397 79.7335 157.148 80.0068C156.899 80.2802 156.599 80.5018 156.264 80.659C155.93 80.8163 155.568 80.9062 155.198 80.9234L155.204 80.9278Z" fill="#6EBA23"/>
<path d="M162.038 76.3822C161.664 76.407 161.29 76.357 160.935 76.2352C160.581 76.1134 160.255 75.9223 159.976 75.6729C159.697 75.4235 159.47 75.1209 159.309 74.7828C159.148 74.4447 159.056 74.0779 159.038 73.7039C159.021 73.3299 159.078 72.9561 159.207 72.6045C159.336 72.2528 159.533 71.9304 159.788 71.656C160.043 71.3816 160.35 71.1608 160.691 71.0065C161.032 70.8522 161.4 70.7674 161.775 70.7572C162.301 70.7316 162.823 70.8555 163.282 71.1145L162.784 72.477L163.808 71.4949C164.358 71.9958 164.686 72.6945 164.721 73.4374C164.734 73.6979 164.709 73.9589 164.649 74.2126C164.509 74.809 164.178 75.3434 163.707 75.735C163.236 76.1265 162.65 76.3537 162.038 76.3822Z" fill="#6EBA23"/>
<path opacity="0.1" d="M161.234 68.091C160.585 68.1619 159.954 68.3644 159.302 68.4049C158.65 68.4454 157.934 68.2892 157.521 67.7815C157.299 67.5096 157.189 67.1639 157.001 66.866C156.823 66.5886 156.58 66.3595 156.292 66.1992C156.111 66.556 156.009 66.9471 155.991 67.3466C155.973 67.7462 156.041 68.1448 156.19 68.5162C156.338 68.8875 156.564 69.2229 156.852 69.5C157.141 69.7771 157.485 69.9896 157.862 70.1234C158.238 70.2571 158.64 70.309 159.038 70.2756C159.437 70.2422 159.823 70.1243 160.173 69.9296C160.522 69.735 160.826 69.4682 161.064 69.1469C161.302 68.8256 161.469 68.4573 161.554 68.0665C161.447 68.0722 161.341 68.0795 161.234 68.091Z" fill="black"/>
<path opacity="0.1" d="M162.036 76.3823C161.551 76.4044 161.068 76.3008 160.635 76.0815C160.202 75.8623 159.833 75.5348 159.564 75.1308C159.294 74.7268 159.134 74.2601 159.098 73.7759C159.062 73.2917 159.152 72.8065 159.359 72.3672C159.582 72.5183 159.774 72.7108 159.924 72.9342C160.125 73.2365 160.247 73.5865 160.483 73.8642C160.916 74.3805 161.67 74.5483 162.348 74.518C163.027 74.4876 163.683 74.2938 164.36 74.2287C164.454 74.22 164.55 74.2142 164.65 74.2113C164.51 74.8084 164.179 75.3435 163.707 75.7354C163.235 76.1272 162.649 76.3544 162.036 76.3823Z" fill="black"/>
<path opacity="0.1" d="M155.204 80.9279C154.835 80.9452 154.466 80.8896 154.118 80.7643C153.77 80.6389 153.451 80.4463 153.177 80.1974C152.904 79.9486 152.682 79.6483 152.525 79.3138C152.368 78.9792 152.278 78.617 152.261 78.2477C152.239 77.8069 152.322 77.3671 152.504 76.9648C152.736 77.1194 152.937 77.3156 153.098 77.5434C153.317 77.8514 153.454 78.2072 153.71 78.4922C154.185 79.0201 154.983 79.2067 155.702 79.1893C156.399 79.1749 157.07 79.0042 157.763 78.9507C157.591 79.5032 157.253 79.9893 156.796 80.3431C156.338 80.6969 155.782 80.901 155.204 80.9279Z" fill="black"/>
<path opacity="0.1" d="M156.592 86.3946C156.265 87.0382 155.702 87.5314 155.021 87.772C154.34 88.0123 153.593 87.9822 152.934 87.6872C152.275 87.3921 151.754 86.855 151.48 86.1869C151.206 85.5188 151.199 84.7708 151.46 84.0977C151.692 84.2502 151.9 84.4359 152.078 84.6488C152.346 84.9757 152.522 85.3459 152.832 85.6497C153.41 86.2138 154.336 86.4466 155.163 86.4683C155.641 86.4722 156.118 86.4476 156.592 86.3946Z" fill="black"/>
<path d="M16.239 89.9325C15.6431 88.8275 16.32 87.4736 17.0982 86.4872C17.8763 85.5008 18.8251 84.4767 18.8049 83.2198C18.776 81.4162 16.861 80.3502 15.3336 79.3927C14.1976 78.6831 13.1499 77.8412 12.2123 76.8847C11.8197 76.5163 11.4951 76.0815 11.2534 75.6003C10.9366 74.8945 10.9467 74.0918 10.9641 73.3194C11.0306 70.7429 11.1579 68.1703 11.3459 65.6016" stroke="#3F3D56" stroke-width="4" stroke-miterlimit="10"/>
<path d="M8.43667 65.4604C8.45837 64.9891 8.59847 64.5309 8.84387 64.128C9.08937 63.725 9.43227 63.3904 9.84107 63.1549L10.4717 64.4017L10.4529 62.8916C10.7537 62.8038 11.067 62.7661 11.38 62.7803C11.9361 62.8063 12.4719 62.9967 12.9198 63.3273C13.3677 63.6579 13.7074 64.1139 13.8962 64.6376C14.0849 65.1613 14.1141 65.7292 13.9801 66.2695C13.8461 66.8097 13.5548 67.2982 13.1432 67.673C12.7316 68.0477 12.2182 68.2921 11.6677 68.375C11.1173 68.458 10.5546 68.3759 10.0508 68.139C9.54697 67.9022 9.12477 67.5213 8.83747 67.0445C8.55007 66.5677 8.41067 66.0165 8.43667 65.4604Z" fill="#6EBA23"/>
<path d="M13.4559 84.5146C13.7512 85.0884 14.2348 85.5433 14.8257 85.8028C15.4166 86.0624 16.0787 86.1109 16.7011 85.9403C17.3235 85.7696 17.8683 85.3902 18.2441 84.8655C18.62 84.3409 18.804 83.703 18.7654 83.0588C18.7267 82.4146 18.4678 81.8032 18.0319 81.3273C17.596 80.8513 17.0098 80.5397 16.3714 80.4447C15.7331 80.3497 15.0815 80.477 14.5259 80.8054C13.9703 81.1337 13.5445 81.6431 13.3199 82.2481L15.0787 83.6786L13.1406 83.2273C13.1414 83.6754 13.2495 84.1168 13.4559 84.5146Z" fill="#6EBA23"/>
<path d="M14.846 79.0449C15.2152 79.0622 15.5843 79.0066 15.932 78.8813C16.2798 78.756 16.5995 78.5634 16.8728 78.3145C17.1461 78.0656 17.3677 77.7653 17.525 77.4308C17.6823 77.0963 17.7721 76.734 17.7893 76.3648C17.8112 75.9239 17.728 75.4842 17.5464 75.0819C17.3782 74.7059 17.1297 74.3713 16.8184 74.1017C16.507 73.832 16.1403 73.6339 15.7442 73.5212L15.7601 74.6783L15.1222 73.4171C14.3765 73.3822 13.6475 73.645 13.0955 74.1477C12.5435 74.6503 12.2138 75.3516 12.1789 76.0973C12.144 76.843 12.4067 77.572 12.9093 78.124C13.412 78.676 14.1133 79.0057 14.859 79.0406L14.846 79.0449Z" fill="#6EBA23"/>
<path d="M8.01448 74.4991C8.38808 74.5239 8.76288 74.4739 9.11698 74.3521C9.47108 74.2303 9.79728 74.0392 10.0766 73.7898C10.3559 73.5404 10.5827 73.2378 10.7437 72.8997C10.9046 72.5616 10.9966 72.1948 11.0141 71.8208C11.0316 71.4468 10.9743 71.073 10.8456 70.7214C10.7169 70.3697 10.5194 70.0473 10.2646 69.7729C10.0098 69.4985 9.70288 69.2777 9.36168 69.1234C9.02048 68.9691 8.65198 68.8843 8.27768 68.8741C7.75408 68.8499 7.23428 68.9737 6.77778 69.2314L7.27538 70.5939L6.24408 69.6161C5.69548 70.116 5.36738 70.8129 5.33148 71.5543C5.31858 71.8148 5.34298 72.0758 5.40378 72.3295C5.54368 72.9259 5.87438 73.4603 6.34548 73.8519C6.81658 74.2434 7.40258 74.4706 8.01448 74.4991Z" fill="#6EBA23"/>
<path opacity="0.1" d="M8.8157 66.2121C9.4651 66.283 10.0958 66.4855 10.7481 66.526C11.4004 66.5665 12.1163 66.4103 12.5286 65.9026C12.7513 65.6307 12.8612 65.285 13.0492 64.987C13.2268 64.7097 13.4703 64.4806 13.758 64.3203C13.9386 64.677 14.0412 65.0682 14.0589 65.4677C14.0765 65.8672 14.0088 66.2659 13.8603 66.6372C13.7118 67.0085 13.4858 67.3439 13.1975 67.6211C12.9092 67.8982 12.5651 68.1107 12.1883 68.2445C11.8114 68.3782 11.4103 68.4301 11.0118 68.3967C10.6133 68.3633 10.2265 68.2453 9.87709 68.0507C9.52779 67.8561 9.22389 67.5892 8.98579 67.268C8.74759 66.9467 8.58069 66.5784 8.49609 66.1875C8.60309 66.1933 8.7087 66.2005 8.8157 66.2121Z" fill="black"/>
<path opacity="0.1" d="M8.01204 74.4996C8.49704 74.5217 8.97954 74.4181 9.41274 74.1988C9.84594 73.9795 10.2151 73.652 10.4844 73.248C10.7538 72.8441 10.9142 72.3773 10.9501 71.8931C10.986 71.4089 10.8961 70.9237 10.6892 70.4844C10.4662 70.6356 10.2743 70.828 10.1237 71.0514C9.92264 71.3537 9.80114 71.7037 9.56544 71.9814C9.13154 72.4978 8.37794 72.6656 7.69964 72.6352C7.02124 72.6048 6.36464 72.411 5.68774 72.3459C5.59374 72.3372 5.49824 72.3314 5.39844 72.3286C5.53824 72.9256 5.86924 73.4608 6.34094 73.8526C6.81264 74.2445 7.39944 74.4716 8.01204 74.4996Z" fill="black"/>
<path opacity="0.1" d="M14.8438 79.0451C15.213 79.0624 15.5821 79.0068 15.9298 78.8815C16.2776 78.7562 16.5973 78.5636 16.8706 78.3147C17.1439 78.0658 17.3655 77.7655 17.5228 77.431C17.6801 77.0965 17.7699 76.7342 17.7872 76.365C17.8091 75.9241 17.7258 75.4844 17.5442 75.082C17.3121 75.2366 17.1106 75.4328 16.9497 75.6606C16.7313 75.9687 16.5939 76.3245 16.3379 76.6094C15.8635 77.1373 15.0651 77.3239 14.3462 77.3066C13.6491 77.2921 12.978 77.1214 12.2852 77.0679C12.4569 77.6204 12.7946 78.1066 13.2524 78.4603C13.7102 78.8141 14.2659 79.0183 14.8438 79.0451Z" fill="black"/>
<path opacity="0.1" d="M13.457 84.5156C13.7845 85.1592 14.3469 85.6524 15.0279 85.893C15.7088 86.1336 16.4562 86.1033 17.1154 85.8083C17.7746 85.5133 18.2951 84.976 18.5694 84.3079C18.8436 83.6398 18.8505 82.8918 18.5887 82.2188C18.357 82.3713 18.1489 82.5569 17.9711 82.7698C17.7035 83.0967 17.5271 83.467 17.2175 83.7707C16.639 84.3348 15.7133 84.5676 14.886 84.5893C14.4086 84.5932 13.9314 84.5686 13.457 84.5156Z" fill="black"/>
<path d="M97.7538 76.3808C97.7568 76.0301 97.6768 75.6837 97.5218 75.3693C97.3668 75.0548 97.1398 74.7811 96.8598 74.57C96.8248 73.2436 95.8798 72.1603 94.6628 71.9925C94.5688 71.5419 94.3578 71.124 94.0508 70.7807C93.7448 70.4374 93.3528 70.1809 92.9158 70.037C92.8088 70.0033 92.7008 69.9777 92.5898 69.9604H92.5588L92.5019 69.9531H92.4538H92.4068H92.3448H92.3068H92.2038C90.9628 69.9531 89.9308 70.902 89.7178 72.1531C88.9148 71.9679 88.1788 72.208 88.0468 72.7157C88.0128 72.8503 88.0208 72.992 88.0688 73.1221C88.2048 73.5155 88.6478 73.8916 89.2478 74.0782L89.3258 74.1013C89.3648 74.1129 89.4038 74.1216 89.4428 74.1303H89.4688C89.2488 74.6008 89.2168 75.1381 89.3818 75.6311C89.5458 76.124 89.8938 76.5349 90.3528 76.7786C90.3348 76.7885 90.3168 76.7996 90.3008 76.8118C90.2268 76.8799 90.1678 76.9626 90.1268 77.0548C89.9818 77.3093 89.8698 77.5809 89.7918 77.8633C89.7338 78.1049 89.7238 78.358 89.6468 78.5967C89.5148 79.0306 89.1768 79.411 89.1378 79.8724C89.1208 80.0777 89.1538 80.3193 89.0078 80.4596C88.9708 80.4909 88.9328 80.5194 88.8918 80.5449C88.7898 80.615 88.7028 80.7056 88.6378 80.8111C88.5948 80.8982 88.5378 80.9775 88.4678 81.0454C88.3368 81.1452 88.1198 81.135 88.0548 81.2884C87.9898 81.4417 88.1568 81.6225 88.1178 81.7902C88.0858 81.9262 87.9368 81.9884 87.8288 82.0795C87.7078 82.2111 87.6228 82.3722 87.5828 82.5467C87.3668 82.5884 87.1438 82.5818 86.9308 82.5276C86.7178 82.4733 86.5188 82.3727 86.3488 82.2328C86.4078 82.3818 86.4498 82.5364 86.4768 82.6942C86.3048 82.5105 86.0208 82.457 85.8108 82.3616C85.5408 82.2376 85.2988 82.0583 85.1028 81.8351L85.4818 81.783L83.8038 79.2374L83.3088 79.1361L83.7528 79.9881C83.7168 80.0055 83.6848 80.031 83.6598 80.0625C83.6348 80.0941 83.6168 80.131 83.6078 80.1703C83.5848 80.2648 83.5788 80.3629 83.5908 80.4596C83.6148 80.6879 83.6528 80.9145 83.7048 81.1379L83.8338 81.7367C83.8448 81.7929 83.8588 81.8484 83.8758 81.9031C83.7078 81.897 83.5408 81.916 83.3788 81.9595C83.0458 81.8365 82.6998 81.7544 82.3468 81.715C82.2698 81.7014 82.1898 81.7054 82.1138 81.7266C82.0278 81.7663 81.9538 81.827 81.8968 81.9031C81.6078 82.2375 81.3508 82.5988 81.1308 82.9821C80.2298 84.5499 79.0258 85.9182 77.8998 87.3356C77.1218 87.6524 76.3378 87.9532 75.5518 88.2507L73.8638 88.8947C73.5268 89.0237 73.1768 89.1547 72.8188 89.1317C72.6568 89.1217 72.4598 89.0977 72.3688 89.2347C72.3238 89.3027 72.2898 89.3767 72.2658 89.4547C72.2068 89.4547 72.1468 89.4687 72.0918 89.4717H72.0818C71.9748 89.2057 71.8828 88.9207 71.6768 88.7267C71.6358 88.7337 71.5968 88.7497 71.5638 88.7747C71.5298 88.8007 71.5038 88.8337 71.4858 88.8717C71.4458 88.9467 71.4208 89.0297 71.3748 89.0987C71.2838 89.2317 71.1258 89.2967 71.0128 89.4097C70.9008 89.5227 70.8298 89.6987 70.7078 89.8087C70.5378 89.9327 70.3388 90.0097 70.1298 90.0327C69.8168 90.1067 69.5148 90.2217 69.2318 90.3747C69.1268 90.4387 69.0148 90.4897 68.8988 90.5277C68.7708 90.5527 68.6388 90.5567 68.5098 90.5407L67.6158 90.4757C67.5358 90.4657 67.4558 90.4687 67.3768 90.4857C67.2848 90.5197 67.2068 90.5827 67.1548 90.6657C67.1018 90.7487 67.0788 90.8467 67.0878 90.9447C67.0988 91.0417 67.1298 91.1347 67.1778 91.2197C67.2268 91.3037 67.2918 91.3777 67.3698 91.4357C67.5248 91.5497 67.6968 91.6387 67.8788 91.7007C68.6558 92.0017 69.4568 92.2367 70.2728 92.4027V92.5827C70.8388 92.8677 71.4628 93.0167 72.0968 93.0167C72.1428 93.0207 72.1898 93.0117 72.2328 92.9927C72.2908 92.9487 72.3318 92.8847 72.3468 92.8127C72.5368 92.2457 72.6568 91.6577 72.7038 91.0617C72.8158 91.0547 72.9248 91.0267 73.0268 90.9787C73.3348 90.8947 73.6398 91.1067 73.9568 91.1407C74.3468 91.1827 74.7098 90.9557 75.0788 90.8157C75.1328 90.7957 75.1858 90.7777 75.2398 90.7607C75.1348 90.8967 75.0098 91.0167 74.8708 91.1177C74.7178 91.2277 74.5458 91.3087 74.3948 91.4227C74.2698 91.5377 74.1358 91.6417 73.9938 91.7337C73.8948 91.7807 73.7918 91.8197 73.6858 91.8527C73.5338 91.9087 73.3878 91.9817 73.2518 92.0707C73.1308 92.1427 73.0278 92.2417 72.9518 92.3607C72.9128 92.4157 72.8898 92.4797 72.8828 92.5467C72.8758 92.6137 72.8868 92.6817 72.9138 92.7437C72.9408 92.8057 72.9828 92.8587 73.0368 92.8997C73.0908 92.9407 73.1538 92.9667 73.2208 92.9767C73.3408 92.9977 73.4648 93.0017 73.5868 92.9867C74.0698 92.9507 74.5508 92.9057 75.0328 92.8627C75.2368 92.8487 75.4388 92.8197 75.6388 92.7757C75.7448 92.7497 75.8488 92.7147 75.9538 92.6877C76.1338 92.6397 76.3188 92.6117 76.5048 92.6047C76.5588 92.6007 76.6138 92.6057 76.6658 92.6207C76.7788 92.6567 76.8578 92.7657 76.9728 92.7947C77.0468 92.8017 77.1218 92.7907 77.1908 92.7637C77.5438 92.6877 77.9028 92.6487 78.2638 92.6497C78.4218 92.6407 78.6068 92.6107 78.6808 92.4647C78.7698 92.2837 78.6198 92.0807 78.5608 91.8857C78.5298 91.7617 78.5138 91.6347 78.5108 91.5067C78.4838 91.1917 78.3928 90.8857 78.2448 90.6057C78.1668 90.4757 78.0998 90.3377 78.0468 90.1947C78.7378 89.9327 79.3998 89.5967 80.0198 89.1947C80.3758 88.9727 80.7428 88.7347 81.1448 88.6537C81.6138 88.5597 82.0968 88.6837 82.5578 88.8167C83.6568 89.1347 84.7378 89.5117 85.7968 89.9467C86.3028 90.1527 86.8088 90.3727 87.3268 90.5247C87.4778 90.7287 87.6618 90.9077 87.8688 91.0547C88.2168 91.2787 88.6398 91.3437 89.0478 91.3757C89.5988 91.4257 90.1528 91.4467 90.7058 91.4377C91.1278 91.4307 91.5638 91.4017 91.9408 91.2087C92.0328 91.1617 92.1198 91.1047 92.1998 91.0387C92.4888 91.0907 92.7858 90.9357 93.0128 90.7377C93.3128 90.4817 93.5298 90.1417 93.6348 89.7607C93.7678 89.2387 93.6648 88.6297 93.9858 88.2037C94.0718 88.0887 94.1828 87.9966 94.2668 87.8809C94.3698 87.726 94.4208 87.5419 94.4108 87.3559L94.4258 87.3342C94.4988 87.1663 94.5469 86.9891 94.5709 86.8077C94.6089 86.666 94.6568 86.5273 94.7148 86.3926C94.8778 85.989 95.0199 85.5772 95.1399 85.1588C95.2239 84.8813 95.2898 84.5987 95.3368 84.3127C95.3718 84.0842 95.3918 83.8542 95.4108 83.6242C95.4338 83.2643 95.5038 82.9088 95.6188 82.5669C95.9048 81.751 96.0658 80.8968 96.0978 80.0329C96.0978 80.0155 96.0978 79.9996 96.0978 79.9823C96.5178 79.9362 96.9048 79.7352 97.1848 79.4185C97.4648 79.1018 97.6158 78.6922 97.6088 78.2698C97.6098 78.0152 97.5568 77.7634 97.4528 77.5307C97.6528 77.1805 97.7558 76.7839 97.7538 76.3808ZM89.5748 86.3188C89.5988 86.4071 89.6278 86.4953 89.6568 86.5835C89.5238 86.4519 89.3928 86.3159 89.2578 86.1858C89.3118 86.2017 89.3648 86.219 89.4168 86.2378C89.4728 86.2598 89.5248 86.2869 89.5748 86.3188ZM88.9268 85.8849C88.1368 85.1993 87.2228 84.6671 86.4138 84.0046C86.8478 84.223 87.2818 84.4762 87.7158 84.7191C88.2208 85.0084 88.7328 85.2852 89.2488 85.5494C89.1648 85.678 89.0568 85.7898 88.9308 85.8791L88.9268 85.8849ZM89.2638 84.158L89.3008 84.1189C89.3008 84.2158 89.3008 84.3069 89.3008 84.3894C89.2308 84.3662 89.1568 84.3431 89.0888 84.3171C89.1508 84.2661 89.2098 84.211 89.2648 84.1522L89.2638 84.158ZM82.3108 86.0151C82.6358 85.6473 82.9188 85.2441 83.1538 84.8132C83.4668 85.3613 83.9758 85.7562 84.4098 86.2147C83.7128 86.1163 83.0138 86.0397 82.3128 86.0093L82.3108 86.0151Z" fill="url(#paint0_linear_637_284)"/>
<path d="M83.4375 79.3477L83.9365 79.4489L85.6365 81.9598L84.8855 82.0611L83.4375 79.3477Z" fill="#2F2E41"/>
<path d="M71.3555 89.5374C71.4895 89.9824 71.6555 90.4174 71.8515 90.8394C72.4145 90.7214 72.9685 90.5634 73.5085 90.3664C73.4045 90.2034 73.2895 90.0474 73.1645 89.8984C73.0315 89.7514 72.8725 89.6294 72.6965 89.5384C72.5235 89.4634 72.3115 89.5194 72.1275 89.5304C71.8705 89.5394 71.6125 89.5424 71.3555 89.5374Z" fill="#FBBEBE"/>
<path d="M72.6968 90.2071C72.4168 90.1191 72.2448 89.8351 72.1298 89.5621C72.0158 89.2881 71.9238 88.9901 71.7068 88.7891C71.6648 88.7961 71.6258 88.8121 71.5928 88.8381C71.5598 88.8631 71.5328 88.8961 71.5158 88.9341C71.4738 89.0061 71.4488 89.0891 71.4008 89.1581C71.3118 89.2881 71.1528 89.3521 71.0378 89.4631C70.9238 89.5751 70.8528 89.7441 70.7298 89.8551C70.5598 89.9781 70.3608 90.0551 70.1518 90.0781C69.8368 90.1491 69.5318 90.2621 69.2458 90.4141C69.1408 90.4751 69.0278 90.5231 68.9108 90.5581C68.7818 90.5831 68.6488 90.5871 68.5188 90.5711L67.6178 90.5061C67.5378 90.4961 67.4558 90.5001 67.3778 90.5181C67.2858 90.5501 67.2068 90.6121 67.1548 90.6931C67.1028 90.7751 67.0788 90.8721 67.0878 90.9691C67.0998 91.0651 67.1318 91.1581 67.1818 91.2421C67.2318 91.3251 67.2978 91.3971 67.3778 91.4541C67.5338 91.5651 67.7068 91.6531 67.8898 91.7141C68.6748 92.0091 69.4828 92.2401 70.3048 92.4041V92.5821C70.8768 92.8651 71.5058 93.0131 72.1428 93.0161C72.1928 93.0201 72.2428 93.0121 72.2878 92.9911C72.3468 92.9481 72.3878 92.8851 72.4038 92.8151C72.6198 92.1831 72.7458 91.5231 72.7778 90.8561C72.7948 90.6871 72.7818 90.5171 72.7408 90.3531C72.6918 90.1911 72.8588 90.2591 72.7028 90.1951" fill="#2F2E41"/>
<path d="M89.9716 86.8109C87.2996 86.9728 84.6616 86.1889 81.9856 86.105C81.6536 86.0848 81.3206 86.1062 80.9936 86.1687C80.6536 86.26 80.3236 86.388 80.0106 86.5505C78.5766 87.2173 77.0926 87.7698 75.6106 88.322L73.9096 88.956C73.5686 89.082 73.2166 89.21 72.8536 89.189C72.6916 89.179 72.4936 89.154 72.4006 89.29C72.1246 89.699 72.2566 90.302 72.4386 90.762C72.4976 90.907 72.5976 91.073 72.7566 91.091C72.8696 91.083 72.9796 91.055 73.0826 91.008C73.3916 90.926 73.7016 91.134 74.0196 91.167C74.4146 91.209 74.7806 90.985 75.1516 90.848C75.7686 90.621 76.4426 90.628 77.0906 90.519C78.1776 90.339 79.1846 89.834 80.1276 89.258C80.4866 89.04 80.8506 88.805 81.2616 88.726C81.7346 88.633 82.2216 88.755 82.6866 88.886C83.7926 89.2 84.8826 89.571 85.9506 89.999C86.5066 90.24 87.0766 90.448 87.6576 90.621C88.9236 90.954 90.2626 90.876 91.4816 90.398C91.9156 90.229 92.3726 89.931 92.3966 89.469C92.4116 89.206 92.2076 88.975 92.0716 88.746C91.9836 88.601 91.8966 88.457 91.8016 88.319C91.3416 87.6483 90.7826 86.7617 89.9716 86.8109Z" fill="#2F2E41"/>
<path opacity="0.1" d="M89.9716 86.8109C87.2996 86.9728 84.6616 86.1889 81.9856 86.105C81.6536 86.0848 81.3206 86.1062 80.9936 86.1687C80.6536 86.26 80.3236 86.388 80.0106 86.5505C78.5766 87.2173 77.0926 87.7698 75.6106 88.322L73.9096 88.956C73.5686 89.082 73.2166 89.21 72.8536 89.189C72.6916 89.179 72.4936 89.154 72.4006 89.29C72.1246 89.699 72.2566 90.302 72.4386 90.762C72.4976 90.907 72.5976 91.073 72.7566 91.091C72.8696 91.083 72.9796 91.055 73.0826 91.008C73.3916 90.926 73.7016 91.134 74.0196 91.167C74.4146 91.209 74.7806 90.985 75.1516 90.848C75.7686 90.621 76.4426 90.628 77.0906 90.519C78.1776 90.339 79.1846 89.834 80.1276 89.258C80.4866 89.04 80.8506 88.805 81.2616 88.726C81.7346 88.633 82.2216 88.755 82.6866 88.886C83.7926 89.2 84.8826 89.571 85.9506 89.999C86.5066 90.24 87.0766 90.448 87.6576 90.621C88.9236 90.954 90.2626 90.876 91.4816 90.398C91.9156 90.229 92.3726 89.931 92.3966 89.469C92.4116 89.206 92.2076 88.975 92.0716 88.746C91.9836 88.601 91.8966 88.457 91.8016 88.319C91.3416 87.6483 90.7826 86.7617 89.9716 86.8109Z" fill="black"/>
<path d="M76.4805 89.6693C76.8995 89.8113 77.3205 89.9423 77.7445 90.0623C77.9835 89.6703 78.4285 89.3983 78.5305 88.9513C78.5355 88.9323 78.5355 88.9113 78.5305 88.8923C78.5195 88.8733 78.5025 88.8583 78.4825 88.8493C78.1775 88.6803 77.8395 88.5823 77.4915 88.5593C77.2165 88.5423 77.0925 88.8283 76.9685 89.0293C76.9245 89.1103 76.5925 89.7063 76.4805 89.6693Z" fill="#FBBEBE"/>
<path d="M77.0701 89.3805C76.9451 89.3595 76.8261 89.3125 76.7201 89.2435C76.6141 89.1735 76.5241 89.0825 76.4551 88.9765C76.3961 88.8735 76.3341 88.7345 76.2151 88.7425C76.0961 88.7495 76.0561 88.8795 76.0311 88.9885C75.9511 89.3935 75.8361 89.7905 75.6861 90.1755C75.5351 90.5615 75.2791 90.8975 74.9471 91.1465C74.7921 91.2535 74.6201 91.3345 74.4681 91.4465C74.3411 91.5595 74.2061 91.6625 74.0631 91.7535C73.9621 91.7995 73.8581 91.8385 73.7521 91.8695C73.5961 91.9235 73.4471 91.9965 73.3081 92.0845C73.1861 92.1565 73.0821 92.2555 73.0061 92.3745C72.9691 92.4345 72.9471 92.5025 72.9421 92.5735C72.9381 92.6435 72.9511 92.7145 72.9801 92.7795C73.0111 92.8315 73.0531 92.8765 73.1021 92.9115C73.1521 92.9465 73.2091 92.9715 73.2691 92.9825C73.3911 93.0035 73.5151 93.0065 73.6381 92.9915C74.1251 92.9555 74.6111 92.9125 75.0971 92.8685C75.3031 92.8565 75.5071 92.8275 75.7091 92.7845C75.8161 92.7585 75.9201 92.7245 76.0261 92.6965C76.2081 92.6505 76.3951 92.6235 76.5821 92.6155C76.6371 92.6115 76.6921 92.6165 76.7441 92.6315C76.8571 92.6675 76.9371 92.7765 77.0531 92.8025C77.1271 92.8095 77.2021 92.8005 77.2721 92.7735C77.6281 92.6975 77.9911 92.6605 78.3541 92.6605C78.5131 92.6515 78.7011 92.6215 78.7741 92.4785C78.8651 92.3005 78.7141 92.1005 78.6541 91.9095C78.6241 91.7875 78.6071 91.6625 78.6031 91.5365C78.5761 91.2255 78.4851 90.9245 78.3351 90.6495C78.2111 90.4215 78.0461 90.1695 78.1291 89.9265C78.1731 89.8505 78.2011 89.7665 78.2111 89.6795C78.1911 89.2875 77.2901 89.4325 77.0701 89.3805Z" fill="#2F2E41"/>
<path d="M85.9689 82.5288C85.4959 82.3199 85.1169 81.9433 84.9039 81.4715C84.8609 81.3702 84.8229 81.2646 84.7809 81.1619C84.6409 80.8224 84.4229 80.5204 84.1449 80.2797C84.1149 80.2469 84.0789 80.2211 84.0379 80.2038C83.9969 80.1866 83.9539 80.1784 83.9089 80.1799C83.8669 80.1926 83.8279 80.2164 83.7979 80.2489C83.7669 80.2815 83.7459 80.3215 83.7359 80.365C83.7109 80.4593 83.7049 80.5575 83.7169 80.6543C83.7419 80.8787 83.7799 81.1014 83.8329 81.321L83.9629 81.9112C83.9789 82.0018 84.0059 82.0902 84.0439 82.1744C84.0999 82.2734 84.1729 82.3612 84.2609 82.4333C84.3789 82.5432 84.4989 82.6488 84.6209 82.7515C84.6879 82.8121 84.7609 82.8654 84.8389 82.9106C84.9679 82.9714 85.1049 83.0115 85.2459 83.0292C85.7769 83.1275 86.3159 83.2693 86.7629 83.6077C86.7629 83.6077 86.7629 83.2129 86.7529 83.1738C86.7469 83.0594 86.7079 82.9492 86.6399 82.8571C86.4719 82.6763 86.1829 82.6228 85.9689 82.5288Z" fill="#FBBEBE"/>
<path opacity="0.1" d="M85.9689 82.5288C85.4959 82.3199 85.1169 81.9433 84.9039 81.4715C84.8609 81.3702 84.8229 81.2646 84.7809 81.1619C84.6409 80.8224 84.4229 80.5204 84.1449 80.2797C84.1149 80.2469 84.0789 80.2211 84.0379 80.2038C83.9969 80.1866 83.9539 80.1784 83.9089 80.1799C83.8669 80.1926 83.8279 80.2164 83.7979 80.2489C83.7669 80.2815 83.7459 80.3215 83.7359 80.365C83.7109 80.4593 83.7049 80.5575 83.7169 80.6543C83.7419 80.8787 83.7799 81.1014 83.8329 81.321L83.9629 81.9112C83.9789 82.0018 84.0059 82.0902 84.0439 82.1744C84.0999 82.2734 84.1729 82.3612 84.2609 82.4333C84.3789 82.5432 84.4989 82.6488 84.6209 82.7515C84.6879 82.8121 84.7609 82.8654 84.8389 82.9106C84.9679 82.9714 85.1049 83.0115 85.2459 83.0292C85.7769 83.1275 86.3159 83.2693 86.7629 83.6077C86.7629 83.6077 86.7629 83.2129 86.7529 83.1738C86.7469 83.0594 86.7079 82.9492 86.6399 82.8571C86.4719 82.6763 86.1829 82.6228 85.9689 82.5288Z" fill="black"/>
<path d="M91.4068 78.0145C91.7658 78.0145 92.0568 77.7218 92.0568 77.3608C92.0568 76.9997 91.7658 76.707 91.4068 76.707C91.0488 76.707 90.7578 76.9997 90.7578 77.3608C90.7578 77.7218 91.0488 78.0145 91.4068 78.0145Z" fill="#2F2E41"/>
<path d="M91.0059 76.9673C90.8319 76.9275 90.6489 76.9538 90.4929 77.041C90.4179 77.1074 90.3579 77.1893 90.3179 77.2811C90.1719 77.5309 90.0579 77.7982 89.9789 78.0766C89.9209 78.3153 89.9109 78.564 89.8349 78.7998C89.7019 79.2337 89.3599 79.6025 89.3209 80.0553C89.3039 80.2577 89.3369 80.4964 89.1889 80.6338C89.1529 80.6645 89.1139 80.6921 89.0719 80.7162C88.9699 80.7852 88.8819 80.8749 88.8159 80.9795C88.7719 81.0734 88.7109 81.1583 88.6359 81.2297C88.5019 81.3281 88.2839 81.3179 88.2189 81.4698C88.1539 81.6217 88.3219 81.7981 88.2829 81.963C88.2509 82.0975 88.0999 82.1597 87.9929 82.2523C87.8709 82.3814 87.7859 82.5407 87.7459 82.7137C87.5289 82.7546 87.3049 82.748 87.0909 82.6943C86.8759 82.6406 86.6759 82.5411 86.5039 82.4027C86.6839 82.8497 86.6889 83.3429 86.6959 83.8245C86.7169 83.9786 86.6759 84.1346 86.5819 84.2584C87.0989 84.27 87.6029 84.403 88.1079 84.5231C88.3229 84.5954 88.5569 84.5954 88.7729 84.5231C88.8879 84.4609 88.9919 84.3787 89.0779 84.2801C89.3529 84.001 89.6409 83.7016 89.7069 83.3125C89.7249 83.0936 89.7289 82.8738 89.7189 82.6544C89.7449 82.3835 89.8009 82.1163 89.8849 81.8574C90.0299 81.32 90.1269 80.7706 90.1739 80.2158C90.2049 79.873 90.4999 79.5982 90.6559 79.2916C90.9449 78.713 91.2489 78.1128 91.2719 77.4648C91.2929 77.2536 91.2199 76.9947 91.0059 76.9673Z" fill="#2F2E41"/>
<path opacity="0.1" d="M91.0059 76.9673C90.8319 76.9275 90.6489 76.9538 90.4929 77.041C90.4179 77.1074 90.3579 77.1893 90.3179 77.2811C90.1719 77.5309 90.0579 77.7982 89.9789 78.0766C89.9209 78.3153 89.9109 78.564 89.8349 78.7998C89.7019 79.2337 89.3599 79.6025 89.3209 80.0553C89.3039 80.2577 89.3369 80.4964 89.1889 80.6338C89.1529 80.6645 89.1139 80.6921 89.0719 80.7162C88.9699 80.7852 88.8819 80.8749 88.8159 80.9795C88.7719 81.0734 88.7109 81.1583 88.6359 81.2297C88.5019 81.3281 88.2839 81.3179 88.2189 81.4698C88.1539 81.6217 88.3219 81.7981 88.2829 81.963C88.2509 82.0975 88.0999 82.1597 87.9929 82.2523C87.8709 82.3814 87.7859 82.5407 87.7459 82.7137C87.5289 82.7546 87.3049 82.748 87.0909 82.6943C86.8759 82.6406 86.6759 82.5411 86.5039 82.4027C86.6839 82.8497 86.6889 83.3429 86.6959 83.8245C86.7169 83.9786 86.6759 84.1346 86.5819 84.2584C87.0989 84.27 87.6029 84.403 88.1079 84.5231C88.3229 84.5954 88.5569 84.5954 88.7729 84.5231C88.8879 84.4609 88.9919 84.3787 89.0779 84.2801C89.3529 84.001 89.6409 83.7016 89.7069 83.3125C89.7249 83.0936 89.7289 82.8738 89.7189 82.6544C89.7449 82.3835 89.8009 82.1163 89.8849 81.8574C90.0299 81.32 90.1269 80.7706 90.1739 80.2158C90.2049 79.873 90.4999 79.5982 90.6559 79.2916C90.9449 78.713 91.2489 78.1128 91.2719 77.4648C91.2929 77.2536 91.2199 76.9947 91.0059 76.9673Z" fill="black"/>
<path d="M90.3981 87.3758C89.8411 87.1111 89.4341 86.6179 88.9851 86.1955C88.1261 85.3885 87.0751 84.8186 86.1731 84.0621C85.5761 83.5617 85.0401 82.9788 84.3821 82.5594C83.8041 82.1901 83.1471 81.9599 82.4641 81.8868C82.3861 81.8732 82.3061 81.8771 82.2301 81.8984C82.1441 81.937 82.0691 81.9967 82.0121 82.0719C81.7201 82.4005 81.4611 82.7565 81.2381 83.135C80.0941 85.076 78.4701 86.709 77.1231 88.5154C77.0801 88.5584 77.0541 88.6154 77.0511 88.6754C77.0481 88.7364 77.0681 88.7954 77.1071 88.8424L77.3801 89.3794C77.5341 89.6784 77.7801 90.0284 78.1041 89.9694C78.2521 89.9264 78.3851 89.8414 78.4871 89.7244L79.7161 88.5484L81.0051 87.3165C81.7601 86.5933 82.5281 85.8556 83.0211 84.9329C83.4061 85.5996 84.0891 86.0364 84.5571 86.6482C84.7351 86.8797 84.8801 87.1357 85.0391 87.3816C85.2951 87.7764 85.5841 88.1464 85.8741 88.5154L87.3531 90.4034C87.5401 90.6714 87.7711 90.9064 88.0371 91.0974C88.3871 91.3184 88.8141 91.3774 89.2261 91.4144C89.7821 91.4644 90.3391 91.4854 90.8971 91.4744C91.3221 91.4674 91.7651 91.4404 92.1411 91.2504C92.5171 91.0614 92.8361 90.6724 92.8161 90.2484C92.7931 90.0264 92.7201 89.8124 92.6031 89.6224C92.0811 88.6534 91.3901 87.843 90.3981 87.3758Z" fill="#2F2E41"/>
<path d="M91.8076 78.3163C92.0826 78.3163 92.3066 78.0916 92.3066 77.8144C92.3066 77.5372 92.0826 77.3125 91.8076 77.3125C91.5316 77.3125 91.3086 77.5372 91.3086 77.8144C91.3086 78.0916 91.5316 78.3163 91.8076 78.3163Z" fill="#E8E8F0"/>
<path d="M91.6967 77.4351C91.8087 77.6595 91.8287 77.9194 91.7517 78.1583C91.6737 78.3933 91.5657 78.617 91.4297 78.8236C91.3127 79.037 91.1727 79.2368 91.0117 79.4195C91.7827 79.4571 92.5307 79.1548 93.2107 78.7875C93.7587 78.4982 94.3057 78.1294 94.5977 77.5783C94.5107 77.599 94.4207 77.6014 94.3327 77.5852C94.2447 77.569 94.1607 77.5346 94.0867 77.4843C93.9397 77.3818 93.8077 77.2591 93.6947 77.1198L93.3087 76.6859C93.2177 76.5907 93.1377 76.4854 93.0707 76.372C92.9857 76.218 92.9497 76.042 92.9677 75.8672C92.8137 76.0282 92.6417 76.1709 92.4557 76.2925C92.1797 76.4733 91.8767 76.6034 91.5977 76.7813C91.4997 76.845 91.2807 76.9477 91.3377 77.0706C91.3937 77.1936 91.6187 77.2963 91.6967 77.4351Z" fill="#FBBEBE"/>
<path opacity="0.1" d="M91.6967 77.4351C91.8087 77.6595 91.8287 77.9194 91.7517 78.1583C91.6737 78.3933 91.5657 78.617 91.4297 78.8236C91.3127 79.037 91.1727 79.2368 91.0117 79.4195C91.7827 79.4571 92.5307 79.1548 93.2107 78.7875C93.7587 78.4982 94.3057 78.1294 94.5977 77.5783C94.5107 77.599 94.4207 77.6014 94.3327 77.5852C94.2447 77.569 94.1607 77.5346 94.0867 77.4843C93.9397 77.3818 93.8077 77.2591 93.6947 77.1198L93.3087 76.6859C93.2177 76.5907 93.1377 76.4854 93.0707 76.372C92.9857 76.218 92.9497 76.042 92.9677 75.8672C92.8137 76.0282 92.6417 76.1709 92.4557 76.2925C92.1797 76.4733 91.8767 76.6034 91.5977 76.7813C91.4997 76.845 91.2807 76.9477 91.3377 77.0706C91.3937 77.1936 91.6187 77.2963 91.6967 77.4351Z" fill="black"/>
<path d="M91.7043 77.511C91.6263 77.6212 91.5843 77.7528 91.5843 77.8878C91.5843 78.0228 91.6263 78.1544 91.7043 78.2646C91.7253 78.2921 91.8084 78.4642 91.8484 78.4656C91.8824 78.4627 91.9143 78.4466 91.9373 78.4208C92.1113 78.2382 92.2753 78.045 92.4253 77.8422C92.5783 77.6369 92.7983 77.4923 93.0473 77.4344C93.3503 77.3866 93.6403 77.5472 93.9053 77.7005C94.0193 77.757 94.1183 77.8392 94.1943 77.9406C94.2503 78.0412 94.2833 78.1527 94.2913 78.2675C94.3673 78.957 94.3963 79.651 94.3783 80.3445C94.3923 80.8445 94.3593 81.3447 94.2803 81.8386C94.2303 82.0931 94.1573 82.3419 94.1223 82.5993C94.0973 82.826 94.0873 83.054 94.0923 83.282V84.2366C94.0853 84.4115 94.0983 84.5866 94.1293 84.7588C94.1893 84.9642 94.2593 85.1664 94.3393 85.3648C94.4093 85.6009 94.4583 85.843 94.4843 86.088L94.6143 87.0759C94.6563 87.3883 94.6863 87.7282 94.4973 87.9784C94.4133 88.0925 94.3003 88.1825 94.2073 88.2955C93.8823 88.7085 93.9904 89.3095 93.8464 89.8225C93.7394 90.1995 93.5203 90.5345 93.2183 90.7845C92.9883 90.9795 92.6903 91.1345 92.3923 91.0735C91.9913 90.9985 91.7503 90.5805 91.6403 90.1855C91.5303 89.7905 91.4953 89.3595 91.2543 89.0285C91.0603 88.7555 90.7613 88.5845 90.4903 88.3895C90.2203 88.1935 89.9543 87.9437 89.8943 87.6139C89.8683 87.4693 89.8843 87.3246 89.8703 87.18C89.8483 86.9957 89.7773 86.8205 89.6653 86.6729C89.5533 86.5253 89.4023 86.4107 89.2303 86.3411C89.0253 86.2616 88.7703 86.2326 88.6523 86.0518C88.9463 85.8669 89.1613 85.5785 89.2533 85.2433C89.3433 84.9131 89.3923 84.573 89.3983 84.2309L89.4683 83.0824C89.4983 82.569 89.5123 82.0599 89.7383 81.5985C89.8393 81.3931 89.9653 81.1993 90.0693 80.9953C90.2093 80.7091 90.3283 80.4133 90.4253 80.1101C90.5883 79.6401 90.7533 79.1686 90.8993 78.6927C90.9583 78.4622 91.0453 78.2401 91.1603 78.0317C91.2943 77.8147 91.4723 77.5544 91.7043 77.511Z" fill="#E8E8F0"/>
<path d="M89.1573 84.9741L89.4613 84.9843L89.5263 84.5258C89.5343 84.434 89.5563 84.344 89.5893 84.2582C89.6403 84.1677 89.6983 84.082 89.7643 84.0022C90.0643 83.5798 90.0423 83.0186 90.1163 82.5052C90.2143 81.8211 90.5003 81.1789 90.7843 80.5482L91.3743 79.2335C91.4273 79.1254 91.4693 79.0126 91.5003 78.8965C91.5263 78.7684 91.5383 78.638 91.5363 78.5074C91.5363 78.3049 91.6033 77.5658 91.6073 77.3619C91.6073 77.2867 91.4423 77.3286 91.4073 77.2621C91.3343 77.1175 91.2323 77.5109 91.0933 77.5976C90.9633 77.6977 90.8673 77.8371 90.8223 77.9954C90.6943 78.3266 90.6163 78.6752 90.4983 79.0079C90.3943 79.3485 90.2043 79.6568 89.9463 79.9032C89.8263 80.0102 89.6863 80.0941 89.5723 80.2069C89.2053 80.5699 89.1703 81.1427 89.1573 81.6533C89.1483 81.97 89.0893 84.9741 89.1573 84.9741Z" fill="#2F2E41"/>
<path d="M93.5303 76.9632C93.2413 77.0789 93.0733 77.3972 92.9903 77.7067C92.9083 78.0163 92.8733 78.3431 92.7143 78.6179C92.3443 79.263 91.3993 79.451 91.1383 80.1481C91.0713 80.3835 91.0363 80.6267 91.0323 80.8713C90.9863 81.3703 90.8213 81.8534 90.7723 82.3524C90.7463 82.7405 90.7553 83.1302 90.7993 83.5167L91.1303 87.4552C91.1953 88.0357 91.1613 88.6218 91.0313 89.1908C91.3703 89.2398 91.7173 89.1827 92.0233 89.0277C92.3343 88.8827 92.6173 88.6917 92.9153 88.5267C93.4293 88.2377 93.9963 88.0427 94.4443 87.6591C94.5253 87.5957 94.5953 87.5189 94.6513 87.432C94.7233 87.2665 94.7723 87.0917 94.7963 86.9128C94.8343 86.7734 94.8823 86.6372 94.9403 86.505C95.1063 86.108 95.2513 85.7024 95.3743 85.29C95.4583 85.0164 95.5253 84.7376 95.5723 84.4554C95.6083 84.2312 95.6273 84.0041 95.6473 83.7785C95.6713 83.4236 95.7413 83.0733 95.8573 82.7371C96.1443 81.9349 96.3073 81.0935 96.3393 80.2421C96.3493 80.1191 96.3413 79.9953 96.3143 79.8747C96.2643 79.7285 96.1973 79.5887 96.1153 79.4582C95.9773 79.1993 95.8953 78.9144 95.7653 78.6526C95.4753 78.0595 94.9563 77.6097 94.4143 77.2322C94.1363 77.0485 93.8313 76.8489 93.5303 76.9632Z" fill="#2F2E41"/>
<path d="M86.6246 83.3918C86.3896 83.269 86.1766 83.1077 85.9956 82.9145C85.9126 82.8176 85.8506 82.7092 85.7606 82.6137C85.5486 82.3873 85.2726 82.23 84.9696 82.1624C84.6686 82.0961 84.3606 82.0665 84.0526 82.0742C83.8476 82.06 83.6406 82.085 83.4436 82.148C83.3456 82.1802 83.2566 82.2369 83.1856 82.3128C83.1146 82.3887 83.0646 82.4812 83.0386 82.5819C82.9946 82.8278 83.1546 83.0664 83.3466 83.2226C83.5256 83.3688 83.7366 83.4713 83.9616 83.522C84.1456 83.5539 84.3306 83.5756 84.5176 83.5871C85.6106 83.7014 86.5866 84.2958 87.5446 84.8382C88.3866 85.3136 89.2446 85.7586 90.1186 86.1732C90.1536 85.9115 90.1686 85.6475 90.1626 85.3835C90.1626 85.1868 90.1476 84.8859 89.9616 84.7702C89.7446 84.6343 89.3826 84.6039 89.1426 84.5229C88.5786 84.339 88.0286 84.1167 87.4956 83.8576C87.1926 83.7115 86.9036 83.5567 86.6246 83.3918Z" fill="#FBBEBE"/>
<path d="M91.405 77.2127C92.481 77.2127 93.354 76.3352 93.354 75.2528C93.354 74.1705 92.481 73.293 91.405 73.293C90.329 73.293 89.457 74.1705 89.457 75.2528C89.457 76.3352 90.329 77.2127 91.405 77.2127Z" fill="#FBBEBE"/>
<path d="M94.0871 79.1866C93.9321 79.4046 93.8051 79.6412 93.7091 79.891C93.4681 80.3871 93.0901 80.8124 92.9021 81.3374C92.7031 81.8827 92.7101 82.5321 92.3241 82.9617C92.2461 83.0268 92.1881 83.1118 92.1541 83.2076C92.1521 83.2673 92.1451 83.3267 92.1341 83.3855C92.0791 83.5417 91.8231 83.5489 91.7761 83.708C91.7621 83.7543 91.7761 83.8049 91.7521 83.8526C91.7131 83.9553 91.5791 83.9698 91.4881 84.032C91.2981 84.1607 91.3431 84.4587 91.1981 84.6438C91.1401 84.7125 91.0641 84.7645 90.9781 84.7945C90.8931 84.8244 90.8011 84.8313 90.7121 84.8145C90.5351 84.7771 90.3641 84.7132 90.2061 84.625C90.1511 84.5937 90.0891 84.5745 90.0251 84.5686C89.9501 84.5702 89.8771 84.5949 89.8161 84.6395C89.4561 84.868 89.2861 85.3221 89.2891 85.7503C89.3151 86.1784 89.4161 86.5986 89.5891 86.9913C89.6091 87.0591 89.6431 87.1221 89.6881 87.1764C89.8071 87.3022 90.0151 87.282 90.1741 87.2111C90.3231 87.1228 90.4821 87.052 90.6471 86.9999C90.9481 86.945 91.2431 87.1532 91.5481 87.1359C91.7721 87.102 91.9821 87.0091 92.1571 86.8669C92.4671 86.6787 92.7451 86.4419 92.9791 86.1654C93.1121 85.9904 93.2101 85.7908 93.3271 85.6042C93.4771 85.375 93.6411 85.1556 93.8191 84.9475L94.9431 83.572C95.0561 83.4418 95.1571 83.3019 95.2451 83.154C95.3471 82.9541 95.4261 82.7435 95.4811 82.5263C95.6021 82.1638 95.6801 81.7887 95.7141 81.4083C95.7201 81.0933 95.6921 80.7787 95.6321 80.4696C95.5941 80.1621 95.5121 79.8616 95.3901 79.5772C95.1401 79.0709 94.5451 78.6515 94.0871 79.1866Z" fill="#2F2E41"/>
<path d="M98.0014 76.6334C98.0024 76.2859 97.9214 75.943 97.7644 75.633C97.6074 75.3229 97.3794 75.0546 97.0984 74.85C97.0904 74.2332 96.8624 73.6394 96.4574 73.1745C96.0514 72.7096 95.4944 72.4038 94.8844 72.3117C94.7664 71.7273 94.4464 71.2034 93.9794 70.8321C93.5134 70.4608 92.9304 70.2661 92.3344 70.2822C91.7394 70.2983 91.1674 70.5241 90.7224 70.92C90.2764 71.3159 89.9844 71.8563 89.8984 72.4462C89.0884 72.2639 88.3484 72.5011 88.2134 73.0001C88.0694 73.5223 88.6474 74.1326 89.5034 74.3641C89.7724 74.4399 90.0514 74.4678 90.3294 74.4465C90.5284 74.7389 90.7864 74.9864 91.0874 75.1732C91.3874 75.36 91.7234 75.482 92.0744 75.5313C92.1764 76.0031 92.4094 76.4368 92.7454 76.7835C93.0814 77.1303 93.5074 77.3764 93.9764 77.494C94.1054 77.8071 94.3064 78.0855 94.5634 78.3069C94.5634 78.3676 94.5534 78.4298 94.5534 78.4935C94.5434 78.7158 94.5794 78.9377 94.6584 79.1459C94.7364 79.3541 94.8564 79.5442 95.0104 79.7048C95.1644 79.8654 95.3494 79.9932 95.5544 80.0805C95.7594 80.1678 95.9794 80.2128 96.2014 80.2128C96.4244 80.2128 96.6444 80.1678 96.8494 80.0805C97.0544 79.9932 97.2394 79.8654 97.3934 79.7048C97.5474 79.5442 97.6674 79.3541 97.7454 79.1459C97.8244 78.9377 97.8604 78.7158 97.8504 78.4935C97.8504 78.2439 97.7974 77.9972 97.6934 77.7703C97.8964 77.426 98.0024 77.0332 98.0014 76.6334Z" fill="#F86D70"/>
<path opacity="0.1" d="M88.7655 73.1C88.8995 72.601 89.6335 72.3638 90.4505 72.5461C90.5455 71.947 90.8485 71.4008 91.3075 71.0039C91.7665 70.6069 92.3505 70.3847 92.9565 70.3765C93.0135 70.3765 93.0695 70.3765 93.1245 70.3765C92.8905 70.305 92.6465 70.2689 92.4015 70.2695C91.7945 70.2777 91.2105 70.4999 90.7525 70.8968C90.2935 71.2938 89.9895 71.84 89.8945 72.4391C89.0845 72.2568 88.3445 72.494 88.2095 72.993C88.0655 73.5152 88.6435 74.1255 89.4995 74.3569C89.6595 74.4011 89.8225 74.4292 89.9875 74.4408C89.1745 74.2036 88.6275 73.6106 88.7655 73.1Z" fill="black"/>
<path opacity="0.1" d="M95.1035 78.5927C95.1035 78.5291 95.1035 78.4669 95.1135 78.4047C94.8575 78.1839 94.6565 77.906 94.5265 77.5933C94.0585 77.4745 93.6325 77.2278 93.2965 76.881C92.9615 76.5341 92.7285 76.1007 92.6245 75.6291C92.2745 75.5801 91.9385 75.4582 91.6375 75.2714C91.3375 75.0846 91.0795 74.8369 90.8805 74.5443C90.7185 74.5571 90.5555 74.5528 90.3945 74.5312C90.5945 74.8007 90.8455 75.0279 91.1345 75.1992C91.4225 75.3705 91.7425 75.4827 92.0745 75.5293C92.1775 76.0011 92.4105 76.4348 92.7465 76.7816C93.0825 77.1283 93.5085 77.3744 93.9765 77.492C94.1065 77.8051 94.3075 78.0835 94.5645 78.3049C94.5645 78.3656 94.5545 78.4278 94.5545 78.4915C94.5465 78.9349 94.7155 79.3632 95.0225 79.683C95.3295 80.0027 95.7505 80.1879 96.1945 80.1982C95.8705 80.0734 95.5925 79.8527 95.3985 79.5658C95.2035 79.2789 95.1005 78.9395 95.1035 78.5927Z" fill="black"/>
<path d="M92.2981 75.9715C92.4301 75.871 92.4291 75.6467 92.2951 75.4705C92.1611 75.2943 91.9451 75.233 91.8131 75.3335C91.6811 75.434 91.6821 75.6583 91.8161 75.8345C91.9501 76.0107 92.1651 76.072 92.2981 75.9715Z" fill="#FBBEBE"/>
<path d="M45.728 85.7248L47.6545 84.5923C47.3942 84.1472 47.0613 83.7488 46.6696 83.4135L43.0363 84.5431L45.8827 82.8696C45.1779 82.4837 44.3847 82.2878 43.5812 82.3015C42.7776 82.3151 41.9915 82.5377 41.3002 82.9474C40.6088 83.3571 40.036 83.9396 39.6382 84.6378C39.2404 85.3361 39.0312 86.126 39.0313 86.9296C39.0313 89.4852 41.1039 89.5732 43.6597 89.5732C46.2154 89.5732 48.2881 89.4852 48.2881 86.9296C48.2896 86.2818 48.154 85.6409 47.8903 85.0492L45.728 85.7248Z" fill="#6EBA23"/>
<path opacity="0.1" d="M46.2183 88.2089C46.0131 88.0039 45.7839 87.8236 45.5356 87.6728C45.187 87.4399 44.824 87.2027 44.4118 87.1246C44.0502 87.0552 43.677 87.1145 43.3082 87.0928C42.6678 87.0537 42.0649 86.7773 41.6174 86.3175C41.3541 86.0456 41.1473 85.7115 40.8306 85.5032C40.4765 85.2928 40.0588 85.2164 39.6532 85.2877C39.5357 85.3041 39.4193 85.3277 39.3046 85.3586C39.1233 85.8624 39.0308 86.3939 39.0313 86.9293C39.0313 89.4849 41.1039 89.5729 43.6597 89.5729C44.9007 89.5729 46.0259 89.5529 46.8576 89.2389L46.713 88.9799C46.5816 88.7029 46.4153 88.4439 46.2183 88.2089Z" fill="black"/>
</g>
<defs>
<linearGradient id="paint0_linear_637_284" x1="82.4218" y1="93.0187" x2="82.4218" y2="69.9286" gradientUnits="userSpaceOnUse">
<stop stop-color="#808080" stop-opacity="0.25"/>
<stop offset="0.54" stop-color="#808080" stop-opacity="0.12"/>
<stop offset="1" stop-color="#808080" stop-opacity="0.1"/>
</linearGradient>
</defs>
</svg>
