<svg width="110" height="121" viewBox="0 0 110 121" fill="none" xmlns="http://www.w3.org/2000/svg">
<mask id="mask0_637_67" style="mask-type:luminance" maskUnits="userSpaceOnUse" x="0" y="0" width="110" height="121">
<path d="M109.065 0.5H0.933594V120.5H109.065V0.5Z" fill="white"/>
</mask>
<g mask="url(#mask0_637_67)">
<path d="M87.4 48.0938V53.7152C86.699 55.07 86.012 56.8307 85.34 59.0356C85.34 59.0356 86.37 62.476 87.4 66.6329V78.5229H61.683L59.896 81.0566H55V92.1936H62.983V117.828H64.642V92.1936H69.33V117.828H70.988V92.1936H87.241V117.828H88.899V92.1936H95.201V117.828H96.86L96.793 92.1936H98.537V48.0938H87.4Z" fill="#332F7B" fill-opacity="0.48"/>
<path d="M28.8984 101.058C28.7418 100.794 28.0644 101.076 27.9399 100.837C27.8158 100.598 28.4452 100.234 28.8047 99.4031C28.8696 99.2532 29.2782 98.3088 28.9757 98.0174C28.4023 97.465 25.7784 99.7445 24.8602 98.9985C24.6587 98.8348 24.5179 98.508 23.908 97.9774C23.6653 97.7663 23.5186 97.671 23.3766 97.7065C23.1751 97.7568 23.1592 98.0264 22.9431 98.5566C22.6191 99.3517 22.4275 99.3037 22.2387 99.9381C22.0986 100.409 22.1306 100.683 21.9657 100.736C21.7323 100.812 21.5175 100.312 21.2218 100.357C20.92 100.403 20.7376 100.984 20.6799 101.42C20.5718 102.237 20.8719 102.776 21.0382 103.343C21.219 103.959 21.3263 104.896 20.9088 106.223L16.7773 117.863C17.6894 115.475 20.3304 108.927 21.4402 106.494C21.7605 105.791 22.1143 105.079 22.8406 104.798C23.5399 104.527 24.5002 104.688 25.7246 104.393C25.8676 104.359 26.2644 104.258 26.3143 104.025C26.3556 103.832 26.1222 103.724 26.1581 103.543C26.2062 103.301 26.6651 103.298 27.2292 103.018C27.6269 102.821 27.8746 102.587 28.0877 102.385C28.152 102.324 29.1068 101.409 28.8984 101.058Z" fill="#FCCFDE"/>
<path d="M12.6417 107.187C12.4669 107.187 12.4102 107.602 12.2567 107.594C12.1037 107.586 12.1067 107.172 11.8026 106.755C11.7478 106.68 11.4021 106.207 11.1718 106.272C10.7353 106.394 11.097 108.339 10.4659 108.575C10.3274 108.626 10.1264 108.601 9.69004 108.747C9.51644 108.806 9.42734 108.85 9.40374 108.93C9.37034 109.043 9.49804 109.129 9.69594 109.388C9.99274 109.777 9.91384 109.857 10.1707 110.132C10.3614 110.337 10.505 110.4 10.4836 110.497C10.4533 110.633 10.1462 110.594 10.0828 110.752C10.0182 110.914 10.251 111.171 10.4481 111.325C10.8179 111.614 11.1692 111.622 11.4954 111.704C11.85 111.793 12.3409 112.011 12.8715 112.598L17.3928 117.985C16.4836 116.848 14.0318 113.663 13.1578 112.416C12.9055 112.056 12.6578 111.677 12.7294 111.239C12.7983 110.818 13.1547 110.393 13.3632 109.707C13.3876 109.627 13.4525 109.403 13.3524 109.311C13.2696 109.235 13.1494 109.319 13.071 109.249C12.9659 109.155 13.0969 108.929 13.1224 108.572C13.1403 108.32 13.0967 108.13 13.0592 107.968C13.0479 107.919 12.8743 107.186 12.6417 107.187Z" fill="#FCCFDE"/>
<path d="M16.1287 107.968L16.0234 107.028L16.0715 106.956C16.2941 106.627 16.4076 106.305 16.4089 106C16.4092 105.951 16.4069 105.902 16.4046 105.853C16.3956 105.657 16.3842 105.413 16.5113 105.129C16.5826 104.971 16.7827 104.604 17.0836 104.649C17.1646 104.661 17.2259 104.698 17.2724 104.741C17.2792 104.731 17.2863 104.72 17.2938 104.708C17.3875 104.565 17.4617 104.504 17.5332 104.445C17.5881 104.399 17.6448 104.353 17.7338 104.242C17.7728 104.193 17.8032 104.151 17.8289 104.115C17.9067 104.006 18.0084 103.877 18.1876 103.879C18.3792 103.888 18.4795 104.047 18.546 104.151C18.6646 104.338 18.7184 104.473 18.7541 104.563C18.767 104.595 18.7817 104.632 18.7892 104.643C18.851 104.734 19.3527 104.649 19.5417 104.619C19.9663 104.548 20.3337 104.486 20.4851 104.754C20.5936 104.946 20.513 105.199 20.2384 105.527C20.1529 105.629 20.0619 105.707 19.9811 105.768C20.048 105.808 20.1079 105.869 20.1322 105.965C20.1894 106.193 19.9936 106.421 19.5504 106.645C19.4403 106.7 19.2921 106.775 19.0845 106.811C18.9867 106.827 18.8986 106.832 18.8233 106.834C18.8217 106.877 18.8115 106.925 18.7849 106.973C18.7071 107.116 18.5451 107.184 18.3009 107.168C18.0322 107.154 17.8109 107.102 17.6158 107.058C17.4454 107.019 17.2985 106.985 17.1832 106.993C16.9695 107.01 16.8047 107.181 16.6114 107.403L16.1287 107.968Z" fill="#FCCFDE"/>
<path d="M16.6172 102.372L15.7347 102.712L15.6536 102.684C15.2784 102.552 14.9384 102.524 14.6426 102.6C14.5955 102.612 14.5491 102.627 14.5018 102.641C14.3145 102.7 14.0816 102.773 13.7746 102.722C13.6033 102.693 13.1978 102.592 13.1653 102.29C13.1558 102.209 13.1762 102.14 13.2066 102.084C13.1943 102.08 13.182 102.076 13.1687 102.072C13.0066 102.017 12.9285 101.961 12.8533 101.907C12.7955 101.865 12.7359 101.822 12.6062 101.764C12.5493 101.739 12.5003 101.72 12.4591 101.705C12.3345 101.657 12.1836 101.591 12.1403 101.417C12.1005 101.23 12.2283 101.092 12.3128 101.002C12.4636 100.839 12.5803 100.753 12.6578 100.696C12.6861 100.675 12.7179 100.652 12.727 100.641C12.7992 100.559 12.5898 100.095 12.512 99.9196C12.3358 99.5269 12.1834 99.187 12.404 98.9727C12.5617 98.8192 12.8271 98.8329 13.2142 99.0152C13.3347 99.0721 13.4328 99.1404 13.5122 99.2032C13.5338 99.1283 13.5779 99.0548 13.6648 99.0069C13.8707 98.8938 14.1412 99.0253 14.4696 99.3974C14.5515 99.4897 14.6611 99.6141 14.7485 99.8059C14.7895 99.8962 14.8158 99.9804 14.8371 100.053C14.8797 100.043 14.9279 100.041 14.9816 100.055C15.1396 100.094 15.2466 100.233 15.2927 100.474C15.3473 100.737 15.3538 100.964 15.3598 101.164C15.3653 101.339 15.3705 101.489 15.4072 101.599C15.4781 101.801 15.6854 101.917 15.9491 102.048L16.6172 102.372Z" fill="#FCCFDE"/>
<path d="M16.1287 99.6041L16.0234 98.6642L16.0715 98.5929C16.2941 98.2634 16.4076 97.9416 16.4089 97.6362C16.4092 97.5876 16.4069 97.539 16.4046 97.4896C16.3956 97.2935 16.3842 97.0498 16.5113 96.7657C16.5826 96.6073 16.7827 96.2405 17.0836 96.2859C17.1646 96.2973 17.2259 96.3345 17.2724 96.3781C17.2792 96.3672 17.2863 96.3563 17.2938 96.3445C17.3875 96.2015 17.4617 96.1402 17.5332 96.0812C17.5881 96.0359 17.6448 95.9891 17.7338 95.8784C17.7728 95.8298 17.8032 95.7871 17.8289 95.7513C17.9067 95.6428 18.0084 95.5135 18.1876 95.5157C18.3792 95.5248 18.4795 95.6832 18.546 95.7881C18.6646 95.975 18.7184 96.1098 18.7541 96.1992C18.767 96.2319 18.7817 96.2687 18.7892 96.28C18.851 96.3708 19.3527 96.2859 19.5417 96.2551C19.9663 96.1843 20.3337 96.123 20.4851 96.3908C20.5936 96.5823 20.513 96.8356 20.2384 97.1637C20.1529 97.2658 20.0619 97.3434 19.9811 97.4043C20.048 97.4442 20.1079 97.5055 20.1322 97.6017C20.1894 97.8295 19.9936 98.0578 19.5504 98.2811C19.4403 98.3369 19.2921 98.4114 19.0845 98.4472C18.9867 98.464 18.8986 98.4681 18.8233 98.4704C18.8217 98.514 18.8115 98.5612 18.7849 98.6097C18.7071 98.7527 18.5451 98.8208 18.3009 98.8044C18.0322 98.7904 17.8109 98.7391 17.6158 98.6941C17.4454 98.6551 17.2985 98.622 17.1832 98.6297C16.9695 98.6469 16.8047 98.818 16.6114 99.04L16.1287 99.6041Z" fill="#FCCFDE"/>
<path d="M17.0907 117.849L16.8938 117.726L16.6641 117.752C16.6605 117.731 16.648 117.681 16.6292 117.604C16.5264 117.184 16.213 115.906 15.9515 113.891C15.7691 112.485 15.6658 111.04 15.6445 109.594C15.6232 108.147 15.6917 107.05 15.7466 106.169C15.7882 105.505 15.8385 104.872 15.888 104.256C16.0196 102.609 16.1438 101.054 16.0514 99.3315C16.031 98.9471 15.9881 98.147 15.5206 97.2955C15.2494 96.8017 14.8759 96.3633 14.4102 95.9929L14.6998 95.6289C15.2138 96.0383 15.627 96.5239 15.9282 97.0722C16.4465 98.0162 16.4932 98.8881 16.5157 99.307C16.6096 101.06 16.4842 102.63 16.3512 104.293C16.3022 104.907 16.2517 105.537 16.2104 106.199C16.1559 107.071 16.0882 108.158 16.1093 109.587C16.1301 111.015 16.2323 112.443 16.4122 113.832C16.6705 115.82 16.9792 117.079 17.0807 117.493C17.1347 117.714 17.1461 117.762 17.0907 117.849Z" fill="#FCCFDE"/>
<path d="M13.5579 96.7298C13.5388 96.7298 13.5195 96.7294 13.5 96.728C13.1042 96.7067 12.7377 96.4697 12.4105 96.0241C12.2571 95.8144 12.1786 95.5752 12.022 95.0982C11.9977 95.0246 11.8797 94.6516 11.808 94.1383C11.761 93.8028 11.7669 93.6626 11.8334 93.5387C11.9072 93.4007 12.0265 93.3045 12.1609 93.2396C12.155 93.1951 12.1598 93.1493 12.179 93.1025C12.2582 92.9087 12.4688 92.9342 12.5828 92.9464C12.6404 92.9537 12.7123 92.9632 12.7899 92.9591C12.912 92.9532 12.9776 92.9169 13.077 92.8624C13.1721 92.8102 13.2903 92.7453 13.4657 92.7095C13.8116 92.6373 14.1014 92.7354 14.1969 92.7676C14.6996 92.9351 14.9474 93.3258 15.2342 93.7783C15.2914 93.8691 15.4877 94.1995 15.6173 94.6525C15.7108 94.9793 15.6976 95.1245 15.6695 95.2325C15.6123 95.4544 15.4773 95.5815 15.1344 95.862C14.7763 96.1557 14.5965 96.3027 14.4422 96.3921C14.083 96.5996 13.8574 96.7298 13.5579 96.7298Z" fill="#FCCFDE"/>
<path d="M109.065 117.823C109.065 117.909 108.995 117.979 108.909 117.979H0.933594V117.668H108.909C108.995 117.668 109.065 117.737 109.065 117.823Z" fill="#E6E6E6"/>
<path d="M49.63 34.3056C48.532 33.0231 46.981 32.5498 46.165 33.2485C45.349 33.9472 45.577 35.5529 46.676 36.8357C47.107 37.3541 47.657 37.7616 48.278 38.0241L52.998 43.3992L55.473 41.1309L50.557 36.0729C50.394 35.4181 50.076 34.8121 49.63 34.3056Z" fill="#FFB6B6"/>
<path d="M85.0525 40.861C85.0525 40.861 86.0845 45.5858 81.9875 47.0924C77.8905 48.599 67.2735 54.3837 66.4875 54.1186C65.7025 53.8535 63.1305 55.1476 60.0965 52.3868C57.0615 49.626 49.7305 41.3025 49.7305 41.3025L52.7465 37.207L64.0995 45.0503C64.0995 45.0503 64.3425 44.9782 65.4185 44.8666C66.4955 44.7551 65.6535 45.434 67.3365 44.0761C69.0205 42.7183 79.7655 37.8521 79.7655 37.8521C79.7655 37.8521 82.9185 36.2897 85.0525 40.861Z" fill="#2F2E41"/>
<path d="M58.262 106.771L59.932 112.15L55.295 115.303L51.957 112.335C51.957 112.335 53.255 107.699 52.699 106.586L58.262 106.771Z" fill="#FFB6B6"/>
<path d="M81.814 30.543L84.473 36.4091L76.693 41.2457L76.25 34.2522L81.814 30.543Z" fill="#FFB6B6"/>
<path opacity="0.1" d="M81.814 30.543L84.473 36.4091L76.693 41.2457L76.25 34.2522L81.814 30.543Z" fill="black"/>
<path d="M78.7555 35.7726C81.8755 35.7726 84.4055 33.243 84.4055 30.1226C84.4055 27.0022 81.8755 24.4727 78.7555 24.4727C75.6355 24.4727 73.1055 27.0022 73.1055 30.1226C73.1055 33.243 75.6355 35.7726 78.7555 35.7726Z" fill="#FFB6B6"/>
<path d="M76.622 40.0034L84.597 34.625L83.299 80.063C83.299 80.063 76.715 68.6572 71.707 68.1008C71.707 68.1008 72.264 66.8026 72.635 66.0607C73.006 65.3189 73.562 61.6096 73.562 61.6096L76.158 41.5798L76.622 40.0034Z" fill="#E61963"/>
<path d="M83.0197 87.0178L75.9727 62.166C75.9727 62.166 77.0857 42.1362 84.5967 34.625L86.3587 37.3142C86.3587 37.3142 88.1007 37.5727 87.7857 38.7417C87.4707 39.9107 94.7037 82.9377 94.7037 82.9377H87.2077C87.2077 82.9377 86.5437 87.0178 83.0197 87.0178Z" fill="#2F2E41"/>
<path d="M76.623 40.0035V39.2617C76.623 39.2617 73.192 39.5399 73.007 41.5799C72.821 43.62 71.337 51.5949 72.821 56.4169L70.966 59.3842L69.668 66.4318L73.748 67.5445L75.974 50.4302C75.974 50.4302 77.458 41.3945 76.623 40.0035Z" fill="#2F2E41"/>
<path d="M83.2071 75.3334C83.2071 75.3334 86.3601 84.421 79.6831 84.6065C73.0071 84.792 62.6051 84.792 62.6051 84.792L57.4281 87.5739L58.9111 107.789L48.5261 107.975C48.5261 107.975 45.1871 83.1228 48.1551 80.1554C51.1221 77.188 59.6531 74.0352 59.6531 74.0352L69.4831 69.0277L72.2471 65.6719L83.2071 75.3334Z" fill="#2F2E41"/>
<path d="M83.5851 33.4175C83.9791 33.2775 87.6671 28.9552 84.5981 26.0917C84.5981 26.0917 83.4021 22.5937 78.6321 22.9606C73.8621 23.3275 72.5781 25.9363 72.5781 27.292C72.5781 28.6477 73.8411 30.1719 73.8411 30.1719C73.8411 30.1719 72.9451 26.4462 74.9631 26.6297C76.9811 26.8131 76.4311 27.547 77.8981 27.18C79.3661 26.8131 80.8331 27.3635 80.8331 27.3635L82.3011 27.9139V30.1521C82.3011 30.1521 82.9411 29.6386 82.9881 30.1521C83.0351 30.6657 83.5851 33.4175 83.5851 33.4175Z" fill="#2F2E41"/>
<path d="M51.6758 79.2286L51.4908 84.9779L44.2578 83.6797C44.2578 83.6797 47.3638 78.5685 46.9238 77.1367L51.6758 79.2286Z" fill="#FFB6B6"/>
<path d="M50.9351 83.6805C50.9351 83.6805 52.2331 83.6805 52.2331 84.4223C52.2331 85.1642 54.2731 90.9135 50.3781 91.0989C46.4841 91.2844 46.6691 90.5425 46.6691 90.5425C46.6691 90.5425 35.7271 95.55 31.8322 88.1316C31.8322 88.1316 30.9049 86.2769 33.1304 85.906C35.3561 85.5351 44.2581 82.4297 44.2581 82.4297C44.2581 82.4297 49.4511 84.4223 50.9351 83.6805Z" fill="#2F2E41"/>
<path d="M58.4478 112.148C58.4478 112.148 59.7458 110.575 59.9308 110.712C60.1168 110.85 64.1968 115.486 61.4148 116.784C58.6328 118.083 57.1498 118.639 57.1498 118.639L56.4078 117.526C56.4078 117.526 50.8438 122.905 42.3128 119.195C42.3128 119.195 41.5708 117.526 43.2398 117.155C44.9088 116.784 51.9568 111.133 51.9568 111.133C51.9568 111.133 54.9238 113.261 56.4078 112.89C57.8908 112.519 58.4478 112.148 58.4478 112.148Z" fill="#2F2E41"/>
<path d="M71.7064 67.5438C71.7064 67.5438 54.3664 58.7344 52.8824 58.7344C51.3984 58.7344 48.5624 59.3448 47.9404 62.1924C47.3184 65.0401 43.6094 78.7642 43.6094 78.7642L52.6974 80.9897L56.2204 71.1603L61.9704 76.3532L71.7064 70.5469V67.5438Z" fill="#2F2E41"/>
<path d="M63.5434 64.1413C61.8734 64.3864 60.6464 65.4469 60.8024 66.5097C60.9584 67.5726 62.4384 68.2352 64.1094 67.9898C64.7784 67.9009 65.4154 67.6531 65.9694 67.2673L73.0324 66.1393L72.4324 62.8359L65.5334 64.2986C64.8924 64.088 64.2094 64.0341 63.5434 64.1413Z" fill="#FFB6B6"/>
<path d="M87.9682 37.662C87.9682 37.662 92.5162 39.307 91.6072 43.5766C90.6982 47.8461 89.9333 59.9125 89.2903 60.4361C88.6473 60.9598 88.3712 63.825 84.4182 64.921C80.4652 66.0169 69.1202 70.868 69.1202 70.868L67.6562 63.0488L80.3442 57.6231C80.3442 57.6231 80.4132 57.3792 80.8922 56.4091C81.3712 55.439 81.4972 56.5131 81.2462 54.3649C80.9942 52.2168 82.6042 40.5317 82.6042 40.5317C82.6042 40.5317 82.9632 37.0312 87.9682 37.662Z" fill="#2F2E41"/>
<path d="M46.9006 3.0846C46.8776 3.10686 46.8566 3.13028 46.8336 3.15273C43.2966 -0.357047 37.6006 -0.387925 34.0261 3.08327C30.4386 6.56815 30.3174 12.289 33.754 15.9227L33.7518 15.9249L33.8374 16.013L46.4926 29.0434L59.6116 16.3023L59.5746 16.2648C59.5966 16.2438 59.6196 16.2243 59.6416 16.203C63.2646 12.6847 63.3486 6.89589 59.8306 3.27332C56.3116 -0.349243 50.5236 -0.433732 46.9006 3.0846Z" fill="#E61963"/>
</g>
</svg>
